<svg width="1132" height="308" xmlns="http://www.w3.org/2000/svg"><defs><linearGradient x1="20.649%" y1="3.031%" x2="68.303%" y2="85.547%" id="a"><stop stop-color="#1883B1" offset="0%"/><stop stop-color="#33BACF" offset="100%"/></linearGradient><linearGradient x1="14.246%" y1="29.781%" x2="92.139%" y2="64.574%" id="b"><stop stop-color="#F36D2C" offset="0%"/><stop stop-color="#F7922C" offset="100%"/></linearGradient></defs><g fill="none" fill-rule="evenodd"><path d="M12.186 43.506l85.01 129.208.203.313c6.229 9.753 3.511 22.737-6.17 29.159l-.4.258a21.196 21.196 0 01-15.572 2.862l-.42-.09a21.19 21.19 0 01-13.078-8.998l-46.53-70.151c-16.957-25.569-17.07-57.462-3.043-82.561zm68.98-40.444l.771.004c25.423.246 50.297 12.657 65.376 35.396l26.132 39.4.204.313c6.229 9.754 3.511 22.736-6.169 29.159l-.313.204c-9.753 6.224-22.737 3.509-29.159-6.173L72.438 3.541a79.98 79.98 0 018.728-.479zM42.051 0l.404.004a22.957 22.957 0 0118.692 10.275l15.238 22.974-.54-.04c-7.743-.506-15.7 1.388-22.652 5.998l-.481.325c-6.853 4.703-11.59 11.357-14.03 18.721L23.446 35.284l-.21-.322c-6.608-10.327-3.976-24.225 6.257-31.056l.098-.067.097-.065.1-.066.098-.066A22.021 22.021 0 0142.051 0z" fill="url(#a)" transform="translate(9.84 10.049)"/><path d="M138.308 229.644l15.238 22.973.21.322c6.607 10.33 3.975 24.228-6.258 31.059l-.097.065-.1.066-.098.064-.099.066-.318.206c-10.347 6.57-24.14 3.414-30.94-6.841l-15.24-22.975.54.04c7.743.51 15.701-1.388 22.652-5.999 7.112-4.715 12.017-11.511 14.51-19.046zm-117.067-52.62c6.89 0 13.65 3.342 17.741 9.512l65.57 97.825a79.706 79.706 0 01-24.55-1.088c-19.89-4.028-38.249-15.627-50.326-33.834l-26.132-39.4c-6.489-9.784-3.818-22.98 5.967-29.471a21.16 21.16 0 0111.73-3.544zM96.74 81.033l.398.004c6.748.126 13.327 3.457 17.342 9.506l47.283 71.294.504.769c16.454 25.435 16.425 56.944 2.538 81.791L79.041 114.048l-.204-.313c-6.229-9.753-3.51-22.737 6.17-29.157a21.16 21.16 0 0111.732-3.545z" fill="url(#b)" transform="translate(9.84 10.049)"/><g fill="#FFF"><path d="M362.106 150.157c-6.93-2.58-15.83-5.163-26.7-7.746-10.466-2.31-18.243-4.653-23.339-7.032-5.095-2.375-7.643-6.012-7.643-10.904s2.207-8.831 6.625-11.822c4.413-2.987 11.242-4.484 20.484-4.484 13.178 0 26.36 3.739 39.541 11.21l10.191-25.07c-6.522-4.076-14.133-7.2-22.827-9.376-8.698-2.172-17.6-3.261-26.702-3.261-13.044 0-24.086 1.972-33.12 5.91-9.039 3.944-15.797 9.275-20.28 16-4.485 6.727-6.727 14.237-6.727 22.524 0 9.512 2.477 17.12 7.44 22.828 4.958 5.707 10.904 9.853 17.833 12.433 6.931 2.583 15.83 5.165 26.702 7.745 7.064 1.63 12.668 3.128 16.815 4.484 4.143 1.36 7.541 3.16 10.191 5.402 2.65 2.242 3.974 5.063 3.974 8.458 0 4.62-2.24 8.325-6.726 11.108-4.484 2.787-11.414 4.179-20.789 4.179-8.427 0-16.85-1.357-25.275-4.077-8.426-2.716-15.694-6.318-21.809-10.802l-11.21 24.866c6.386 4.892 14.844 8.866 25.376 11.924 10.53 3.057 21.433 4.586 32.714 4.586 13.045 0 24.118-1.972 33.222-5.911 9.103-3.94 15.931-9.274 20.485-16 4.551-6.726 6.828-14.166 6.828-22.32 0-9.508-2.48-17.05-7.44-22.623-4.96-5.57-10.904-9.647-17.834-12.23m86.214 20.994l22.625-54.624 22.624 54.624H448.32zm6.522-87.032L391.25 226.794h33.834l12.637-30.573h66.243l12.637 30.573h34.65L487.454 84.118h-32.612zm111.287 142.676h33.019v-51.975h66.039v-26.497h-66.04v-37.707h74.804V84.118H566.129zm197.912-25.682c-8.427 0-16.034-1.936-22.827-5.81-6.797-3.871-12.128-9.273-16-16.202-3.873-6.93-5.81-14.81-5.81-23.644 0-8.831 1.937-16.714 5.81-23.643 3.872-6.93 9.203-12.332 16-16.204 6.793-3.873 14.4-5.81 22.827-5.81 8.424 0 16.033 1.937 22.829 5.81 6.792 3.872 12.127 9.274 16 16.204 3.872 6.929 5.809 14.812 5.809 23.643 0 8.834-1.937 16.714-5.809 23.644-3.873 6.929-9.208 12.33-16 16.203-6.796 3.873-14.405 5.809-22.829 5.809m47.288 34.039c-3.669 0-7.102-.784-10.294-2.344-3.194-1.564-6.49-4.112-9.886-7.644 15.355-4.891 27.685-13.586 36.995-26.09 9.306-12.5 13.961-27.038 13.961-43.617 0-13.994-3.397-26.6-10.191-37.81-6.796-11.21-16.102-20.006-27.923-26.394-11.822-6.386-25.14-9.58-39.95-9.58-14.812 0-28.162 3.194-40.05 9.58-11.892 6.388-21.198 15.184-27.925 26.395-6.725 11.21-10.088 23.815-10.088 37.809 0 12.774 2.818 24.427 8.458 34.956 5.637 10.53 13.519 19.127 23.644 25.783 10.12 6.659 21.637 10.803 34.548 12.434 11.006 11.547 20.789 19.598 29.35 24.152 8.56 4.552 18.14 6.829 28.739 6.829 7.879 0 15.115-1.498 21.707-4.485 6.59-2.99 12.195-7.337 16.816-13.044l-14.676-17.53c-6.659 7.064-14.405 10.6-23.235 10.6"/><path d="M903.253 171.15l22.624-54.624 22.625 54.624h-45.25zm6.522-87.032l-63.591 142.676h33.834l12.636-30.573h66.243l12.637 30.573h34.65L942.389 84.118h-32.613zm88.052 0v26.904h45.656v115.772h33.02V111.022h45.656V84.118z"/></g></g></svg>