<svg xmlns="http://www.w3.org/2000/svg" viewBox="0 0 795.7 765.99"><g data-name="Layer 1"><path d="M563.9 614.69L154.59 378.37c-4.74-2.74-4.14-7.56 1.33-10.72l196.13-113.23c5.47-3.16 13.82-3.5 18.56-.77l409.32 236.32c4.74 2.74 4.14 7.56-1.33 10.72L582.46 613.92c-5.47 3.16-13.82 3.51-18.56.77z" style="mix-blend-mode:multiply" fill="#a8c4e4" opacity=".4"/><path d="M718.04 278.61v-2.21q0-.22-.08-.44l-.08-.42-.1-.44-.12-.44v-.2l-.07-.24-.13-.42-.11-.32-.15-.4-.15-.38-.07-.16v-.07l-.06-.15-.18-.39-.19-.39v-.06l-.21-.41-.21-.37-.14-.25-.07-.12c-.12-.2-.25-.4-.37-.59l-.12-.19q-.25-.37-.51-.73l-.08-.1-.07-.09-.19-.24-.32-.39-.12-.15-.06-.08-.12-.14-.32-.36-.25-.26-.36-.35-.38-.35-.37-.32-.4-.32h-.06l-.29-.22-.4-.29-.11-.08-.8-.54-.41-.25-2.21-1.27-12.12 6.52 3 1.76.4.27.4.29.4.3.16.13c.21.17.42.35.62.53.21.19.4.38.6.57l.07.07.55.58.08.09.51.6.09.11.48.62.23.33.28.4.3.48.2.32.16.28.28.5.07.14c.12.23.24.47.35.71v.06q.17.38.33.76v.08q.15.37.28.75v.1q.13.37.24.74v.11q.11.37.2.74v.11q.09.37.15.75v.11q.07.38.11.75v.1c0 .25.05.5.07.76s0 .25 0 .38v1.36c0 .15 0 .33-.05.5s0 .26-.05.38l-.11.69-41.66 258.78c-.2 1.23-5 9.1-3.89 8.48l11.45-9.7a13.33 13.33 0 004.54-8l41.08-253.9.5-3.08q0-.19.06-.38v-1.34z" fill="#8eb0da"/><path d="M698.22 270.99c5.46 3.15 9.12 10.39 8.18 16.18L663.88 549.7c-.93 5.79-6.11 7.92-11.57 4.77L250.22 322.34c-5.46-3.15-9.12-10.39-8.18-16.18l42.48-262.54c.94-5.79 6.11-7.92 11.57-4.77z" fill="#fff"/><path d="M712.11 232.33L313.59 2.24 313 1.9l-1.05-.6-.41-.21-.42-.2-.42-.18-.48-.17-.43-.14-.46-.13h-.11l-.4-.09h-2.27l-.41.06h-.22a6.43 6.43 0 00-.79.22h-.14a6.13 6.13 0 00-1 .44l-11.7 6.8a6.11 6.11 0 01.94-.43l.38-.12.46-.13.57-.1h.22a7.29 7.29 0 01.82 0h.16a8.06 8.06 0 01.86.07h.06a9 9 0 01.93.19h.08q.46.12.93.3h.09c.33.13.66.27 1 .44l.41.21.32.18 2.21 1.27 399.14 230.39a1.48 1.48 0 001.48 0l8.76-5.09a1.48 1.48 0 000-2.55zM309.65 2.95z" fill="#a8c4e4"/><path d="M722.9 248.02v-2.2q0-.22-.08-.44t-.08-.42l-.1-.44-.12-.44v-.2l-.3-.34-.13-.42-.11-.32-.15-.4-.15-.38-.07-.16v-.07l-.06-.15-.18-.39-.19-.39v-.06l-.21-.41-.21-.37-.14-.25-.07-.12c-.12-.2-.25-.4-.37-.59l-.12-.19q-.25-.37-.51-.73l-.08-.1-.07-.09-.19-.24-.32-.39-.12-.15-.06-.08-.12-.14-.32-.36-.25-.26-.36-.35-.38-.35-.37-.32-.4-.32h-.06l-.29-.22-.4-.29-.11-.08-.24-.16-.41-.25-9.74-5.62-12 7.22s10.26 5.37 10.39 5.45l.4.27.4.29.4.3.16.13.62.53c.21.19.4.38.6.57l.07.07.55.58.08.09.51.6.09.11.48.62.23.33.28.4.3.48.2.32.16.28.28.5.07.14c.12.23.24.47.35.71v.06q.17.38.33.76v.08q.15.37.28.75v.1q.13.37.24.74v.11q.11.37.2.74v.11q.09.37.15.75v.11q.07.38.11.75v.1c0 .25.05.5.07.76s0 .25 0 .38v1.36c0 .15 0 .33-.05.5s0 .26-.06.38l-.11.69-41.97 258.44c-.2 1.23-5 9.1-3.89 8.48l11.45-9.7a13.33 13.33 0 004.54-8l41.05-253.95.5-3.08q0-.19.05-.38v-1.27z" fill="#8eb0da"/><path d="M702.61 240.4c5.46 3.15 9.12 10.39 8.18 16.18l-42.47 262.53c-.93 5.79-6.11 7.92-11.57 4.77L254.67 291.75c-5.46-3.15-9.12-10.39-8.18-16.18l42.47-262.53c.94-5.79 6.11-7.92 11.57-4.77z" fill="#2d4583"/><path d="M688.22 257.3c5.18 2.93 8.68 9.24 7.84 14.1l-38.39 220.24c-.84 4.86-5.72 6.41-10.9 3.48l-381.37-216c-5.18-2.93-8.68-9.24-7.84-14.1l38.41-220.25c.85-4.86 5.72-6.41 10.9-3.48z" fill="#9dc8eb"/><path d="M657.16 572.21l-.09-12.21-15.72 6.08-3.37-7.76-393.33-227.09c-4.74-2.74-14.15-2.39-19.62.77l-170.4 97.77v-2.72l-25.88 12.58-3.64-1.47.49 11.94a5.54 5.54 0 003 4.61l409.33 236.93c4.74 2.74 13.1 2.7 18.57-.46L652.63 578.1c3-1.72 4.51-3.87 4.52-6z" fill="#2d4583"/><path d="M437.71 676.75L28.39 440.44c-4.74-2.74-4.14-7.56 1.33-10.72l196.14-113.24c5.47-3.16 13.82-3.5 18.56-.77l409.32 236.32c4.74 2.74 4.14 7.56-1.33 10.72L456.22 675.98c-5.42 3.16-13.77 3.51-18.51.77z" fill="#e1e9f3"/><path d="M285.22 562.54l-99.06-57.19c-1.15-.66-1-1.83.32-2.59l47.47-27.41a5 5 0 014.49-.19l99.06 57.19c1.15.66 1 1.83-.32 2.59l-47.47 27.41a5 5 0 01-4.49.19z" fill="#a8c4e4"/><path d="M505.55 141.71c0 2.53-1.79 3.55-4 2.27a8.79 8.79 0 01-4-6.88c0-2.53 1.79-3.55 4-2.27a8.79 8.79 0 014 6.88zM250.39 359.54a3.13 3.13 0 01-2.7-.31l-24.86-14.39c-.9-.52-1.14-1.22-.55-1.56l16.46-9.51a3.13 3.13 0 012.7.31l24.85 14.34c.9.52 1.14 1.22.55 1.56zm28.83 42.77a3.11 3.11 0 01-2.71-.31l-24.85-14.34c-.89-.52-1.13-1.21-.53-1.56l16.46-9.56a3.12 3.12 0 012.69.31l24.84 14.39c.91.52 1.14 1.22.56 1.56zm-14.58 17.78a3.12 3.12 0 01-2.7-.32l-24.85-14.34c-.88-.51-1.15-1.21-.55-1.56l16.47-9.51a3.16 3.16 0 012.69.32l24.85 14.34c.89.52 1.14 1.22.56 1.55zm-39.42 3.45a3.13 3.13 0 01-2.69-.31l-24.85-14.34c-.89-.51-1.13-1.21-.54-1.55l16.47-9.51a3.14 3.14 0 012.7.31l24.85 14.34c.89.51 1.13 1.22.54 1.56zm-68.39-10a3.13 3.13 0 01-2.7-.32l-24.85-14.34c-.9-.52-1.14-1.22-.55-1.56l19.33-11.17a3.16 3.16 0 012.7.32l24.85 14.34c.89.52 1.13 1.22.55 1.56zm42.84 24.73c-.59.34-2 .07-3.21-.61l-32.56-18.79c-1.17-.67-1.64-1.51-1-1.85l19.32-11.17c.58-.34 2-.07 3.2.61l32.56 18.79c1.18.68 1.64 1.52 1.06 1.85zm213.89 123.61a3.07 3.07 0 01-2.52-.42l-24.82-14.33c-.91-.52-1.24-1.18-.75-1.47l7.15-4.13a3.11 3.11 0 012.54.43l24.83 14.33c.9.52 1.22 1.17.73 1.45zm33.2 19.66a3.07 3.07 0 01-2.52-.42l-24.83-14.33c-.91-.52-1.24-1.18-.75-1.47l7.15-4.13a3.11 3.11 0 012.54.43l24.87 14.33c.89.52 1.22 1.17.73 1.45zm35.2 19.85a3.08 3.08 0 01-2.49-.44l-24.84-14.33c-.89-.51-1.25-1.17-.77-1.44l6.88-4a3.12 3.12 0 012.5.45l24.84 14.33c.89.52 1.24 1.17.77 1.44zm-21.65-27.44a3.08 3.08 0 01-2.49-.44l-24.84-14.33c-.89-.51-1.25-1.17-.77-1.44l6.88-4a3.12 3.12 0 012.5.45l24.84 14.35c.9.52 1.24 1.17.77 1.44zm-89.7-37.05a3.16 3.16 0 01-2.71-.32l-161.68-93.32c-.88-.51-1.15-1.22-.55-1.56l19.3-11.16a3.19 3.19 0 012.7.32l161.71 93.32c.9.52 1.14 1.23.56 1.57z" fill="#516eb5"/><path d="M354.04 522.75a9.43 9.43 0 01-1.37-.71l-128.7-74.27a7.76 7.76 0 01-1.23-.79l1.2-.69a9.53 9.53 0 011.36.71L354 521.27a7.84 7.84 0 011.24.79zM195.22 432.1a.39.39 0 01-.26-.07l-19-11c-.1-.06-.16-.13-.12-.15l1.2-.69a.39.39 0 01.26.07l19 11c.11.06.16.13.13.15zm-48.69-30.2a.17.17 0 01-.15 0l-8.06-4.65s-.05-.06 0-.09l1.2-.69a.17.17 0 01.15 0l8.06 4.65s.05.06 0 .09zm112.75 41.26a3.14 3.14 0 01-2.7-.32l-24.85-14.3c-.88-.51-1.14-1.22-.55-1.56l16.47-9.51a3.18 3.18 0 012.71.32l24.86 14.3c.9.52 1.14 1.22.55 1.56zm34.21 19.74a3.14 3.14 0 01-2.69-.31l-24.85-14.34c-.89-.51-1.14-1.22-.55-1.56l16.47-9.51a3.16 3.16 0 012.71.32l24.84 14.34c.88.51 1.13 1.22.54 1.56zm34.22 19.75a3.13 3.13 0 01-2.69-.31L300.17 468c-.89-.51-1.13-1.21-.54-1.55l16.47-9.51a3.14 3.14 0 012.7.31l24.84 14.29c.89.51 1.13 1.22.54 1.56zm34.21 19.75a3.13 3.13 0 01-2.69-.31l-24.85-14.35c-.9-.52-1.14-1.22-.55-1.56l16.47-9.51a3.15 3.15 0 012.71.32l24.85 14.34c.89.52 1.13 1.22.54 1.56zm34.22 19.75a3.17 3.17 0 01-2.71-.32l-24.84-14.34c-.89-.51-1.13-1.21-.54-1.55l16.47-9.51a3.14 3.14 0 012.7.31l24.84 14.34c.9.52 1.15 1.23.56 1.57zm34.22 19.73a3.15 3.15 0 01-2.7-.32l-24.84-14.34c-.89-.52-1.14-1.22-.55-1.56l16.47-9.51a3.15 3.15 0 012.71.32l24.84 14.34c.89.51 1.13 1.22.54 1.56zm77.07 44.47a3.14 3.14 0 01-2.7-.32l-67.7-39.07c-.89-.52-1.14-1.22-.55-1.56l16.47-9.51a3.14 3.14 0 012.7.31l67.7 39.07c.89.52 1.13 1.22.54 1.56zM298.69 439.72a3.08 3.08 0 01-2.68-.31l-24.85-14.34c-.89-.52-1.14-1.21-.55-1.55l16.47-9.51a3.13 3.13 0 012.69.32l24.85 14.34c.9.52 1.13 1.21.54 1.55zm34.23 19.75a3.12 3.12 0 01-2.69-.31l-24.86-14.35c-.88-.51-1.13-1.2-.54-1.55l16.47-9.51a3.13 3.13 0 012.68.31l24.86 14.35c.89.51 1.13 1.21.55 1.55zm34.21 19.75a3.13 3.13 0 01-2.7-.32l-24.84-14.36c-.88-.51-1.15-1.22-.56-1.56l16.47-9.51a3.18 3.18 0 012.7.32l24.85 14.34c.89.51 1.14 1.22.56 1.55zm34.21 19.74a3.11 3.11 0 01-2.69-.32l-24.84-14.34c-.9-.52-1.15-1.21-.55-1.56l16.47-9.51a3.14 3.14 0 012.69.32l24.8 14.34c.89.51 1.13 1.22.55 1.55zm34.23 19.74a3.12 3.12 0 01-2.69-.32l-24.86-14.34c-.89-.52-1.14-1.21-.54-1.55l16.47-9.51a3.12 3.12 0 012.68.32l24.86 14.35c.89.51 1.13 1.22.55 1.55zm34.21 19.74a3.1 3.1 0 01-2.69-.31l-24.87-14.34c-.9-.52-1.16-1.22-.56-1.56l16.47-9.51a3.15 3.15 0 012.7.32l24.84 14.33c.89.51 1.13 1.21.55 1.55zM504 558.18a3.11 3.11 0 01-2.69-.31l-24.86-14.33c-.89-.51-1.13-1.2-.54-1.55l16.47-9.51a3.11 3.11 0 012.68.31l24.86 14.35c.89.51 1.13 1.21.55 1.55zM313.27 421.95a3.12 3.12 0 01-2.71-.31l-24.84-14.34c-.88-.51-1.13-1.21-.53-1.56l16.47-9.51a3.13 3.13 0 012.68.31l24.88 14.34c.9.52 1.14 1.22.55 1.56zm34.21 19.74a3.12 3.12 0 01-2.7-.31l-24.85-14.34c-.89-.52-1.14-1.22-.54-1.56l16.47-9.51a3.14 3.14 0 012.69.32l24.85 14.34c.88.51 1.13 1.21.54 1.55zm34.22 19.75a3.13 3.13 0 01-2.71-.31l-24.85-14.34c-.89-.51-1.13-1.21-.53-1.56l16.47-9.51a3.13 3.13 0 012.68.31l24.85 14.34c.9.52 1.14 1.22.56 1.56zm34.21 19.74a3.1 3.1 0 01-2.7-.31l-24.85-14.33c-.9-.52-1.14-1.22-.54-1.56l16.47-9.51a3.14 3.14 0 012.69.32l24.85 14.34c.9.52 1.13 1.21.54 1.55zm34.23 19.74a3.11 3.11 0 01-2.69-.3l-24.85-14.34c-.9-.52-1.14-1.21-.54-1.56l16.47-9.51a3.12 3.12 0 012.69.33l24.85 14.34c.88.51 1.12 1.21.54 1.55zm34.22 19.75a3.13 3.13 0 01-2.71-.32l-24.85-14.34c-.88-.51-1.13-1.21-.53-1.56l16.47-9.51a3.15 3.15 0 012.69.31l24.79 14.34c.9.52 1.15 1.22.56 1.56zm34.21 19.74a3.12 3.12 0 01-2.7-.31l-24.85-14.34c-.89-.52-1.14-1.21-.54-1.56l16.47-9.51a3.13 3.13 0 012.69.32l24.85 14.34c.89.51 1.13 1.21.55 1.55zM245 382.54a3.13 3.13 0 01-2.71-.31l-42.13-24.29c-.9-.52-1.14-1.22-.54-1.56l16.47-9.51a3.14 3.14 0 012.7.32l42.12 24.35c.9.52 1.14 1.22.56 1.56zm330.46 164.51a3.13 3.13 0 01-2.7-.31l-42.14-24.31c-.88-.51-1.14-1.21-.54-1.56l16.46-9.51a3.14 3.14 0 012.7.31l42.14 24.32c.89.52 1.14 1.22.55 1.56zM230.42 400.34a3.1 3.1 0 01-2.7-.32l-50.23-29c-.9-.52-1.15-1.21-.55-1.56l16.47-9.51a3.14 3.14 0 012.69.32l50.23 29c.9.52 1.14 1.22.56 1.55zm-39.41 3.44a3.14 3.14 0 01-2.7-.32l-33.5-19.32c-.9-.52-1.14-1.22-.55-1.56l16.47-9.51a3.14 3.14 0 012.71.31l33.49 19.33c.89.52 1.14 1.22.55 1.56zm93.59-24.54a3.13 3.13 0 01-2.71-.32l-24.83-14.38c-.89-.52-1.14-1.22-.55-1.56l16.46-9.44a3.13 3.13 0 012.7.32l24.83 14.33c.91.52 1.15 1.22.55 1.56zm34.06 19.64a3.14 3.14 0 01-2.71-.32l-24.85-14.34c-.89-.51-1.14-1.22-.55-1.56l16.46-9.51a3.14 3.14 0 012.7.31l24.85 14.34c.89.52 1.15 1.22.55 1.56zm34.2 19.74a3.1 3.1 0 01-2.69-.31l-24.85-14.34c-.89-.51-1.13-1.21-.54-1.56l16.44-9.51a3.12 3.12 0 012.7.31l24.87 14.33c.9.52 1.13 1.21.54 1.55zm34.23 19.75a3.14 3.14 0 01-2.7-.32l-24.83-14.33c-.9-.52-1.14-1.22-.55-1.56l16.46-9.51a3.13 3.13 0 012.71.32l24.83 14.33c.89.52 1.14 1.22.55 1.56zm34.2 19.74a3.09 3.09 0 01-2.69-.31l-24.84-14.34c-.9-.52-1.14-1.22-.55-1.56l16.46-9.51a3.13 3.13 0 012.71.32l24.84 14.33c.9.52 1.13 1.21.53 1.55zm34.24 19.74a3.13 3.13 0 01-2.69-.31l-24.86-14.35c-.89-.51-1.13-1.21-.53-1.55l16.46-9.51a3.11 3.11 0 012.69.31l24.86 14.35c.88.51 1.13 1.21.54 1.56zm34.21 19.74a3.13 3.13 0 01-2.7-.31l-24.82-14.34c-.9-.52-1.15-1.22-.55-1.56l16.46-9.51a3.14 3.14 0 012.71.32l24.82 14.35c.89.52 1.14 1.22.55 1.56zm34.21 19.74a3.11 3.11 0 01-2.69-.31l-24.87-14.35c-.88-.51-1.12-1.21-.53-1.55l16.46-9.51a3.11 3.11 0 012.69.31l24.87 14.35c.89.51 1.13 1.21.53 1.55zm19.9 17.41a3.8 3.8 0 00-1.46-.48 2 2 0 00-1.22.17l-16.47 9.51a.57.57 0 00-.3.71 1.82 1.82 0 00.82.84l6.49 3.74-21.59 12.49a.56.56 0 00-.28.72 1.79 1.79 0 00.83.84l16.74 9.66a3.9 3.9 0 001.46.48 2 2 0 001.24-.16l39.11-22.62a.55.55 0 00.27-.71 1.76 1.76 0 00-.84-.85z" fill="#516eb5"/><path d="M186.55 395.76a.39.39 0 01-.26-.07l-19-11c-.1-.06-.16-.13-.12-.15l1.2-.69a.39.39 0 01.26.07l19 11c.11.06.16.13.13.15zM2.82 352.74l10.17 5.29 2.94-5.71-2.28-11.96-10.83 12.38z" fill="#516eb5"/><path fill="#2d4583" d="M185.26 126l-9.21-4.88-13.75 8.76 13.13 6.57 9.83-10.45z"/><path d="M171.02 121.65l-163 94.1c-4.42 2.55-8 9.45-8 15.34v115.15c0 5.89 3.61 8.62 8 6.07l163-94.1c4.42-2.55 8-9.45 8-15.34V127.72c.03-5.89-3.58-8.62-8-6.07z" fill="#2d4583"/><path d="M181.22 263.54l-163 94.1c-4.42 2.55-8-.18-8-6.07V236.4c0-5.89 3.61-12.79 8-15.34l163-94.1c4.42-2.55 8 .18 8 6.07v115.15c0 5.89-3.58 12.79-8 15.36z" fill="#516eb5"/><path d="M52.87 295.01l-24.12 13.92c-2.11 1.22-3.84-.09-3.84-2.9 0-2.82 1.73-6.12 3.84-7.33l24.12-13.92c2.11-1.22 3.84.09 3.84 2.9s-1.73 6.11-3.84 7.33zm40.78-23.55l-24.12 13.92c-2.11 1.22-3.84-.09-3.84-2.9 0-2.82 1.73-6.12 3.84-7.33l24.12-13.92c2.11-1.22 3.84.09 3.84 2.9s-1.73 6.11-3.84 7.33zm40.78-23.54l-24.12 13.92c-2.11 1.22-3.84-.09-3.84-2.9 0-2.82 1.73-6.12 3.84-7.33l24.12-13.92c2.11-1.22 3.84.09 3.84 2.9-.05 2.81-1.73 6.11-3.84 7.33z" fill="#9dc8eb"/><path d="M143.71 260.33l-29 16.72c-1.4.81-2.54-.06-2.54-1.92a6.1 6.1 0 012.54-4.85l29-16.72c1.4-.81 2.54.06 2.54 1.92a6.1 6.1 0 01-2.54 4.85z" fill="#afd4f0"/><path d="M55.79 225.54l-27.72 16c-1.74 1-3.16-.07-3.16-2.39a7.59 7.59 0 013.16-6l27.72-16c1.74-1 3.16.07 3.16 2.39a7.59 7.59 0 01-3.16 6z" fill="#9dc8eb"/><path d="M53.85 269.43l-23.84 13.76c-2.8 1.62-5.1-.12-5.1-3.85v-5.3c0-3.74 2.29-8.12 5.1-9.74l23.84-13.76c2.8-1.62 5.1.12 5.1 3.85v5.3c0 3.74-2.3 8.12-5.1 9.74z" fill="#ecd265"/><path d="M100.06 296.54l-72.61 41.92c-1.4.81-2.54-.06-2.54-1.92a6.1 6.1 0 012.54-4.85l72.61-41.92c1.4-.81 2.54.06 2.54 1.92a6.1 6.1 0 01-2.54 4.85z" fill="#afd4f0"/><path d="M175.22 224.37l-24.12 13.92c-2.11 1.22-3.84-.09-3.84-2.9 0-2.82 1.73-6.12 3.84-7.33l24.12-13.92c2.11-1.22 3.84.09 3.84 2.9-.01 2.81-1.74 6.11-3.84 7.33zm3.83-72.46c0 7.35-5.19 16.3-11.59 20s-11.59.74-11.59-6.61 5.19-16.3 11.59-20 11.59-.76 11.59 6.61z" fill="#9dc8eb"/><path style="mix-blend-mode:multiply" fill="#a8c4e4" opacity=".4" d="M575.06 176.14l112.89 62.59-2.92 12.18.04.03-75.44 318.01-113.43-64.56 78.86-328.25z"/><path fill="#fff" d="M553.84 183.25l-74.73 311.21 110 63.91 77.62-312.52-112.89-62.6z"/><path d="M507.75 463.22c-4.2 17.47 6.37 39.37 23.59 48.92s34.59 3.13 38.79-14.34-6.37-39.37-23.59-48.92-34.59-3.13-38.79 14.34z" fill="#ecd265"/><path d="M562.22 222.01l80.26 44.53c2.16 1.2 4.42.09 5-2.45a6.44 6.44 0 00-2.81-6.79l-80.23-44.48c-2.16-1.2-4.42-.09-5 2.45a6.44 6.44 0 002.78 6.74zm41.15 43.53a2.49 2.49 0 013.36-1.17l31.54 17.49a5.39 5.39 0 012.35 5.68c-.51 2.12-2.4 3-4.21 2l-32.08-17.79a3.27 3.27 0 01-1.7-4zm-57.69 16.12a2.49 2.49 0 013.36-1.17l31.54 17.49a5.39 5.39 0 012.35 5.68c-.51 2.12-2.4 3-4.21 2l-32.08-17.79a3.27 3.27 0 01-1.7-4zm-6.91 28.64a2.49 2.49 0 013.36-1.17l31.54 17.49a5.39 5.39 0 012.35 5.68c-.51 2.12-2.4 3-4.21 2l-32.07-17.76a3.27 3.27 0 01-1.7-4zm-5.45 25.83a2.49 2.49 0 013.36-1.17l31.54 17.49a5.39 5.39 0 012.35 5.68c-.51 2.12-2.4 3-4.21 2l-32.08-17.79a3.27 3.27 0 01-1.7-4zm19.14-97.4a2.49 2.49 0 013.36-1.19l31.54 17.49a5.39 5.39 0 012.35 5.68c-.51 2.12-2.4 3-4.21 2l-32.08-17.72a3.27 3.27 0 01-1.7-4zm-30.9 173.13l67.24 37.28c3.18 1.76 6.52.14 7.42-3.61l3.34-13.92c.9-3.75-1-8.26-4.15-10l-67.19-37.3c-3.18-1.76-6.52-.14-7.42 3.61l-3.34 13.92c-.95 3.7.92 8.25 4.1 10.02zm26.26-145.72l85.14 47.2a1 1 0 001.53-.74 2 2 0 00-.85-2.06l-85.14-47.2a1 1 0 00-1.53.74 2 2 0 00.85 2.06zm-22.6 91.97l85.14 47.2a1 1 0 001.53-.74 2 2 0 00-.85-2.06l-85.14-47.2a1 1 0 00-1.53.74 2 2 0 00.85 2.06z" fill="#afd4f0"/><path d="M207.84 709.29c-22.06 12.74-57.94 12.67-80.13-.14s-22.31-33.53-.25-46.27 57.94-12.67 80.13.14 22.3 33.52.25 46.27z" style="mix-blend-mode:multiply" fill="#a8c4e4" opacity=".4"/><path d="M152.92 660.28l-24.26 4.95-3.27 8.42c-.78 6-.74 9.25 3.26 12.43 3.37 2.68 10.23.61 13.82-1.06l15.59-9.37c11.55-6.37 10.68-11.08 9.43-15-1.84-4.34-7.19-3.33-14.57-.37zm51.53 29.88l-23.46-7.94-7.06 5.63c-3.71 4.82-5.29 7.62-3.44 12.39 1.56 4 8.54 5.68 12.48 6l18.19-.26c13.19.31 14.81-4.2 15.69-8.19.59-4.66-4.53-6.47-12.4-7.63z" fill="#2d4583"/><path d="M121.62 389.45c-13.23 20.06-19.08 45.65-24.31 68.81-1.13 5-1.56 8-.24 12.86 4.42 16.27 9.43 31.48 11.33 48.45 1 8.55 14.49 8.65 13.52 0a226 226 0 00-9.82-46.35c-.94-2.84-2-5.64-3.06-8.43 1 2.56-.34 4.44.18 2.16.32-1.43.62-2.86.94-4.29 5-22.31 10.39-47.08 23.12-66.38 4.81-7.29-6.9-14.07-11.68-6.83z" fill="#fbc1b1"/><path d="M117.8 394.77c-8.95 15.59-15.43 42-21.32 63.3-2.23 5.89-.82 11.22 2.9 11l12.45 1.72c3.07-.2 8.92-6.84 10.35-11.77l15.79-54.27c2.57-8.83.67-16.43-4.39-17.56l-1.15-.17c-.87-3.27-7.88-3.31-14.63 7.75z" fill="#8abce6"/><path d="M159.64 493.62L97.15 529.7a4.59 4.59 0 01-6.89-4v-43.49a4.59 4.59 0 012.3-4l62.48-36.08a4.59 4.59 0 016.89 4v43.51a4.59 4.59 0 01-2.29 3.98z" fill="#283e76"/><path d="M136.09 481.33c0 5-3.56 11.19-8 13.73s-8 .51-8-4.54 3.56-11.19 8-13.73 8-.5 8 4.54z" fill="#fff"/><path d="M125.83 521.66l-4.55 2.06a7 7 0 01-9.23-3.48 7 7 0 013.48-9.23l4.55-2.06a7 7 0 019.23 3.48 7 7 0 01-3.48 9.23z" fill="#fbc1b1"/><path d="M178.51 345.67l.09 2.56s.34 7.7-7.25 3.72-7.35-13.59-7.35-13.59 5.77-.69 14.51 7.31z" fill="#fff" opacity=".46"/><path d="M171.3 352.17c9.89 5.14 9.54-3.85 9.54-3.85h.08l-.29-3.06c-11-9.48-18-9-18-9s-1.22 10.77 8.67 15.91zm-6.91-13.46s5.63-.3 14.07 7.05l.07 2.21s.26 6.68-7.1 2.85-7.04-12.11-7.04-12.11z" fill="#513654"/><path fill="#513654" d="M184.54 350.04l-5.88-2.68-.32-3.33 5.88 2.68.32 3.33zm-21.48-11.21l-1-.48a2.34 2.34 0 01-1.15-1.77c-.07-.72.34-1.09.9-.83l1 .48a2.34 2.34 0 011.15 1.77c.07.72-.33 1.09-.9.83zm38.02 17.35l-1-.48a2.34 2.34 0 01-1.15-1.77c-.07-.72.34-1.09.9-.83l1 .48a2.34 2.34 0 011.15 1.77c.08.72-.33 1.09-.9.83z"/><path d="M200.22 353.46s-7.75-7.19-17.89-7.37l.29 3.06h.08a18.18 18.18 0 0011.18 13.3c9.8 3.86 6.34-8.99 6.34-8.99zm-6.75 7.44a13.52 13.52 0 01-8.32-9.89l-.37-2.35c7.75 0 13.95 5.73 13.95 5.73s2.03 9.35-5.23 6.51z" fill="#2d4583"/><path d="M186.53 352.7c-.24-.29-.32-.66-.17-.83l1.76-1.94c.15-.17.47-.06.72.23.24.29.32.66.17.83l-1.79 1.94c-.12.17-.44.07-.69-.23z" fill="#2d4583"/><path d="M165.51 342.7c-.24-.29-.32-.66-.17-.83l1.76-1.94c.15-.17.47-.06.72.23.24.29.32.66.17.83l-1.77 1.94c-.14.16-.46.06-.71-.23z" fill="#fdfeff"/><path d="M163.29 541.79c9 26.39 9.82 54.75 9 82.37-.63 20.58-3.88 41.34-3.37 61.92.34 13.5 21.36 13.55 21 0-.53-21.15 2.84-42.48 3.42-63.63.78-28.78-.41-58.77-9.78-86.25-4.34-12.73-24.65-7.27-20.27 5.59zm-42.28-23.68c4.71 17.13 6.85 34.8 8.56 52.45 1 10.43 2.25 20.37 1.15 30.77-2.21 20.92-6.1 42.25-6 63.32.09 13.52 21.11 13.55 21 0-.15-21.4 3.85-43 6.06-64.26 1.11-10.7-.39-21.16-1.44-31.85-1.86-18.8-4.09-37.77-9.11-56-3.58-13-23.87-7.49-20.27 5.59z" fill="#2d4583"/><path d="M138.22 545.9c1.94 2.18-6.4-8.41-3.9-6.9 5.2 3.14 34.38 23 40.45 23.07 7.33.12 3.06-7 8.52-11.87 5.18-4.65 6.4-12.2 6.91-19.14a12 12 0 00-.53-5.69c-.83-1.91-2.54-3.26-4.2-4.51-13-9.81-38.46-34.09-56.57-26.33-20.92 9.01.04 40.96 9.32 51.37z" fill="#2d4583"/><path d="M123.02 390.6c-3.84 4.95-3.38 8-3.2 14.76a15.09 15.09 0 0011 14.11l65 18.22s3.73-25-9.08-32.52c-6.9-4.05-17.61-10.54-26-15.66-12.39-7.52-28.86-10.34-37.72 1.09z" fill="#dceefa"/><path d="M152.65 389.76l5.5-24.49 14.94 10.05-4.5 22.3c-.44 3.62-17.02.46-15.94-7.86z" fill="#fbc1b1"/><path d="M161.72 329.54s-15-10.43-15.12 14.92a44.22 44.22 0 0025.08 39.8c9 4.29 20-1.2 20.52-10 2.15-12.81 2.18-24.78-2-35.09.6-10.59-6.69-6.82-19.28-7.5z" fill="#fbc1b1"/><path d="M153.15 378.75s-17.32-6.43-15.68-30.8c1.78-26.37 26-24.1 39.52-25.39 6-.57 10.12-1.43 16.23 4 5.56 5 .36 16.1-7.61 16.82-3.16.29-1.71 8.8-2.35 11.72-1.14 5.2-4.37 7.74-5.57 12.77-1.13 4.77-8.16 12.24-12.73 12.76-8.13.97-11.81-1.88-11.81-1.88z" fill="#715255"/><path d="M119.59 508.05c-4.14-1.6-3.15-72.69.57-112l73.14 34.8c-.37 33.42-4.59 59.8-.59 100.53z" fill="#dceefa"/><path d="M168.31 538.7c-18.07-6.59-35.28-13.81-45.4-26.21-5-2.87-4.34-7.92 1.4-11.23 5.74-3.31 14.49-3.67 19.46-.81l45.4 26.21c5 2.87 4.34 7.92-1.4 11.23-5.73 3.31-14.49 3.65-19.46.81z" fill="#dceefa"/><path d="M193.3 430.89l-12.08-5.73c-.49 32.58-4.49 58.75-.55 98.75l-.2-.06c.08 2.26-1.52 4.67-4.74 6.53-5.74 3.31-14.49 3.67-19.46.81a208.51 208.51 0 01-24.73-10.44c10 7.64 23.12 13 36.75 17.95 5 2.87 13.72 2.5 19.46-.81 3.22-1.86 4.83-4.27 4.74-6.53l.2.06c-3.98-40.73.24-67.1.61-100.53z" fill="#dceefa"/><path d="M200.69 356.98l-22.35 2.14a1.46 1.46 0 01-1.58-1.31 1.46 1.46 0 011.31-1.58l22.35-2.14a1.46 1.46 0 011.58 1.31 1.46 1.46 0 01-1.31 1.58z" fill="#2d4583"/><path d="M178.27 400.12c-16.78-2.52-28.11 8-32.12-16.14a5.36 5.36 0 017.25 1.59c2.88 4.16 9 6.79 15.77 6a5.32 5.32 0 015.12 2.4z" fill="#ddeefa"/><path d="M181.04 421.98c1.14 14 3.36 26.78 9.21 39.6 4.2 9.22 8.52 22.41 17.62 28.22 20.54 13.12 42.44-20.49 52.14-33.27 5.26-6.93-6.48-13.68-11.68-6.83-5.5 7.24-25.79 39-36.25 25.29-11.17-14.62-16.06-35.18-17.52-53-.7-8.61-14.23-8.69-13.52 0z" fill="#fbc1b1"/><path d="M174.22 421.82c4.09 34.58 15 56.58 30.1 67.77 7.94 4.4 15.38-8.14 12.34-15.71-15-13.38-20.32-34.23-21.76-58-2-4.83-7.56-7.45-12.93-6-5.57 1.37-8.99 6.66-7.75 11.94z" fill="#fff"/><rect x="366.15" y="528.87" width="19.48" height="27.48" rx="8.49" ry="8.49" transform="rotate(-141.27 298.1 519.123)" fill="#fbc1b1"/><path d="M169.11 370.08c-.83.61-2.69 18.25 12.15 15.39s11.84-17.69 11.84-17.69-11.77 3.06-15-11.54-8.99 13.84-8.99 13.84z" fill="#715255"/><path d="M181.75 362.79c.36 4.17-1.77 7.76-4.76 8a4 4 0 01-1 0c-2.59-.41-4.77-3.34-5.09-7.05-.36-4.17 1.77-7.76 4.76-8s5.73 2.88 6.09 7.05z" fill="#fbc1b1"/><path d="M319.86 109.54l-65.18-41.15c-1.79-1.13-4.16-2.88-5.37-1.7l-.21 1.26-18.62 10.4 11 18.07-2.12 17.48c-1.36 11.19 4.4 24.69 12.8 30l29.47 18.61 12.12 23 19-9.7a9.76 9.76 0 00.94-.63h.06c2.74-2.11 4.7-5.86 5.32-10.91l5.34-44.07c.46-4.04-1.58-8.82-4.55-10.66z" fill="#516eb5"/><path d="M283.74 184.36l-48.59-28.38c-8.3-4.85-14-18-12.62-29.17l5.34-44.07c.48-4 3.28-5.8 6.21-4.09l68.14 39.77c2.94 1.72 4.95 6.36 4.47 10.33l-5.34 44.07c-1.41 11.2-9.31 16.39-17.61 11.54z" fill="#e1e9f3"/><path d="M253.17 120.78c.65-5.4 5.1-7.48 9.93-4.66s8.22 9.49 7.56 14.88-5.1 7.48-9.93 4.66-8.22-9.48-7.56-14.88z" fill="#2d4583"/><path d="M261.39 119.8l.64.24c2.37.87 3.87 5 3.32 9.24l-1.69 13.07c-.54 4.21-2.93 6.95-5.3 6.08l-.64-.24c-2.37-.87-3.87-5-3.32-9.24l1.69-13.07c.54-4.22 2.93-6.95 5.3-6.08zm46.48-12.11a6 6 0 002.36-4.49c.46-17.15-2.37-45.53-24.78-54.49-10.81-4.32-18.83-1.81-23.66 1.06-9.57 5.69-14.44 17.14-16.87 25.77-1.11 3.92 3.49 6.43 6.94 3.8l4-3a6.28 6.28 0 002-2.81c2-5.78 5.15-11.67 9.57-14.3 1.19-.71 4.84-2.88 12.22.08 16.9 6.75 18.86 30.77 18.39 45.37-.14 4.51 5.32 6.59 9.21 3.52z" fill="#2d4583"/><path d="M230.82 140.54a2.5 2.5 0 01-2.61-2.79l5.34-44.08a3.34 3.34 0 013.29-2.79 2.5 2.5 0 012.61 2.79l-5.34 44.08a3.34 3.34 0 01-3.29 2.79z" fill="#fff"/><path fill="#2d4583" d="M363.69 139.71l22.25-8.24 109.02 131.16-27.28 9.89-103.99-132.81z"/><path d="M390.09 219.22l71.39 41c28.09 16.12 60.25-6.29 57.89-40.34l-.23-3.38c-1.1-15.8-9.8-30.14-22.84-37.62l-78.23-44.89c-27.19-15.6-58.32 6.09-56 39 1.31 19.42 12.01 37.04 28.02 46.23z" fill="#2d4583"/><path d="M368.22 227.32l71.39 41c28.09 16.12 60.25-6.29 57.89-40.34l-.28-3.44c-1.1-15.8-9.8-30.14-22.84-37.62l-78.23-44.89c-27.19-15.6-58.32 6.09-56 39 1.34 19.51 12.07 37.1 28.07 46.29z" fill="#516eb5"/><path d="M470.64 196.93c-3.39 11.54 1.8 26.92 11.6 34.36s20.49 4.11 23.88-7.44-1.8-26.92-11.6-34.36-20.49-4.11-23.88 7.44z" fill="#d94278"/><path d="M463.54 199.25c-3.39 11.54 1.8 26.92 11.6 34.36s20.49 4.11 23.88-7.44-1.8-26.92-11.6-34.36-20.49-4.1-23.88 7.44z" fill="#ef487c"/><path d="M483.81 218.74a5.47 5.47 0 00-2.86-5.8 4.52 4.52 0 00-3.48-.53l-2-2.93 2.64-12.4 12.53 6.89-.78 4.92-8.11-4.46-1.13 4.51a5.35 5.35 0 012.57.77 11.14 11.14 0 015.79 11.68c-.88 5.6-5.18 6.73-9.5 4.36a17.16 17.16 0 01-7.24-7.82l2.88-2.43a11.92 11.92 0 004.37 5.12c2.26 1.24 3.94.69 4.34-1.89m-58.44 26.11l-36.67-20.77a13.63 13.63 0 01-6.32-12.64l.37-29.54c.63-4.63 4.51-6.51 8.62-4.18l47.68 27a13.63 13.63 0 016.32 12.64l-7.79 25.32c-1.26 4.53-8.1 4.5-12.21 2.17z" fill="#fff"/><path d="M442.77 221.05l-58.72-33.25c-2.9-1.64-4.85-6.09-4.33-9.88.52-3.79 3.31-5.55 6.21-3.91l58.72 33.25c2.9 1.64 4.85 6.09 4.33 9.88-.51 3.79-3.31 5.55-6.21 3.91z" fill="#fff"/><path d="M396.98 218.78l-.43-.24a5.42 5.42 0 01-2.25-5.12l1.78-13.07c.27-2 1.72-2.88 3.22-2l.43.24a5.42 5.42 0 012.25 5.12l-1.76 13.04c-.29 1.96-1.74 2.88-3.24 2.03zm12.49 7.07l-.43-.24a5.42 5.42 0 01-2.25-5.12l1.78-13.07c.27-2 1.72-2.88 3.22-2l.43.24a5.42 5.42 0 012.25 5.12l-1.78 13.07c-.27 1.94-1.72 2.85-3.22 2zm12.49 7.07l-.43-.24a5.42 5.42 0 01-2.25-5.12l1.78-13.07c.27-2 1.72-2.88 3.22-2l.43.24a5.42 5.42 0 012.25 5.12l-1.74 13.04c-.31 1.97-1.76 2.88-3.26 2.03z" fill="#9dc8eb"/><path d="M430.75 215.62a3.56 3.56 0 003.52-2.88l3.69-28.31a2.42 2.42 0 00-1.23-2.46l-31.15-17.76a3.41 3.41 0 00-3.16 0 3.37 3.37 0 00-1.91 2.5l-3.69 28.31a2.57 2.57 0 002.76 2.85 3.56 3.56 0 003.52-2.88l3-23.3 25.29 14.42-3.47 26.68a2.57 2.57 0 002.83 2.83z" fill="#fff"/><path fill="#516eb5" d="M370.51 264.68l-16.44-9.5 3.54-17.19 16.45 9.5-3.55 17.19zm62.69 32.79l-55.65-32.13 1.98-9.64 55.66 32.13-1.99 9.64zm-67.24-7.53l-16.45-9.5 3.55-17.19 16.44 9.5-3.54 17.19zm62.69 32.79l-55.66-32.13 1.99-9.64 55.65 32.13-1.98 9.64zm-66.89-7.17l-16.45-9.5 3.55-17.19 16.45 9.5-3.55 17.19zm62.69 32.79l-55.66-32.14 1.99-9.63 55.66 32.13-1.99 9.64z"/><path d="M710.09 708.21l-75.43-43.55a6.79 6.79 0 010-11.76l75.43-43.55a6.79 6.79 0 016.79 0l75.43 43.55a6.79 6.79 0 010 11.76l-75.43 43.55a6.79 6.79 0 01-6.79 0z" style="mix-blend-mode:multiply" fill="#a8c4e4" opacity=".48"/><path fill="#956b6f" d="M707.86 703.6l-76.17-43.98v-42.64l76.17-1.34v87.96z"/><path fill="#715255" d="M784.04 659.62l-76.18 43.98v-87.96l76.18 1.34v42.64z"/><path fill="#bc878d" d="M707.65 661.08l-76.39-44.1 76.39-44.11 76.39 44.11-76.39 44.1z"/><path fill="#e1e9f3" d="M653.11 671.99l1.03-41.8 16.89 9.75-1.25 41.67-16.67-9.62z"/><path fill="#fff" d="M654.14 630.19l74.85-44.99 16.96 9.79-74.92 44.95-16.89-9.75zm111.37-16.05l-19.36 11.18-7.47-4.31 19.37-11.18 7.46 4.31z"/><path d="M618.81 164.23l-36.64 11.72a3.81 3.81 0 01-4.72-5l15.7-40.21zm-17.3-66.37l16.11-5.97 78.95 94.98-19.75 7.17-75.31-96.18z" fill="#dea84a"/><path d="M620.63 155.44l51.7 29.66c20.34 11.67 43.63-4.56 41.92-29.21l-.17-2.45c-.79-11.44-7.1-21.83-16.54-27.25l-56.65-32.51c-19.69-11.3-42.23 4.41-40.57 28.27.97 14.07 8.71 26.83 20.31 33.49z" fill="#dea84a"/><path d="M604.78 161.3l51.7 29.66c20.34 11.67 43.63-4.56 41.92-29.21l-.17-2.45c-.79-11.44-7.1-21.83-16.54-27.25l-56.66-32.51c-19.69-11.3-42.23 4.41-40.57 28.27.97 14.08 8.76 26.84 20.32 33.49z" fill="#ecd265"/><path fill="#5c5c85" d="M640.04 119.94l16.11-5.97 78.95 94.98-19.75 7.17-75.31-96.18z"/><path d="M659.16 177.54l51.7 29.66c20.34 11.67 43.63-4.56 41.92-29.21l-.17-2.45c-.79-11.44-7.1-21.83-16.54-27.25l-56.65-32.51c-19.69-11.3-42.23 4.41-40.57 28.27.97 14.05 8.71 26.81 20.31 33.49z" fill="#dea84a"/><path d="M643.31 183.38l51.7 29.66c20.34 11.67 43.63-4.56 41.92-29.21l-.17-2.45c-.79-11.44-7.1-21.83-16.54-27.25l-67.7-38.82c-19.69-11.3-31.18 10.72-29.52 34.59.96 14.07 8.71 26.83 20.31 33.48z" fill="#ecd265"/><path d="M709.84 173.18l-1.62 2.84a1 1 0 01-1.37.35l-3.64-1.5c-1.49-.61-2.08 1.15-1 3l2.63 4.47a3.4 3.4 0 01.52 2.15l-.62 3.8c-.25 1.56 1.3 3.75 2.64 3.72l3.26-.08a2.37 2.37 0 011.69 1l3.26 3.85c1.33 1.57 2.89 1.17 2.64-.68l-.62-4.52a1.44 1.44 0 01.52-1.54l2.63-1.43c1.08-.58.48-3-1-4.14l-3.64-2.71a4.17 4.17 0 01-1.37-1.93l-1.63-4.73c-.68-1.98-2.61-3.09-3.28-1.92zm-26.27-14.49l-1.63 2.85a1 1 0 01-1.37.35l-3.64-1.5c-1.49-.61-2.08 1.15-1 3l2.63 4.47a3.4 3.4 0 01.52 2.15l-.62 3.8c-.25 1.56 1.3 3.75 2.64 3.72l3.26-.08a2.37 2.37 0 011.69 1l3.26 3.84c1.33 1.57 2.89 1.17 2.64-.68l-.62-4.52a1.44 1.44 0 01.52-1.54l2.63-1.43c1.08-.58.48-3-1-4.14l-3.64-2.71a4.17 4.17 0 01-1.37-1.93l-1.64-4.8c-.67-1.91-2.61-3-3.26-1.85zM657.3 144.2l-1.63 2.85a1 1 0 01-1.37.35l-3.64-1.5c-1.49-.61-2.08 1.15-1 3l2.63 4.47a3.4 3.4 0 01.52 2.15l-.62 3.8c-.25 1.56 1.3 3.75 2.64 3.72l3.26-.08a2.37 2.37 0 011.69 1l3.26 3.85c1.33 1.57 2.89 1.17 2.64-.68l-.62-4.52a1.44 1.44 0 01.52-1.54l2.64-1.53c1.08-.58.48-3-1-4.14l-3.64-2.71a4.17 4.17 0 01-1.37-1.93l-1.63-4.73c-.69-1.88-2.62-2.99-3.28-1.83zm-26.28-14.49l-1.62 2.83a1 1 0 01-1.37.35l-3.64-1.5c-1.49-.61-2.08 1.15-1 3l2.63 4.47a3.4 3.4 0 01.52 2.15l-.62 3.8c-.25 1.56 1.3 3.75 2.64 3.72l3.26-.08a2.37 2.37 0 011.69 1l3.26 3.84c1.33 1.57 2.89 1.17 2.64-.68l-.62-4.52a1.44 1.44 0 01.52-1.54l2.63-1.43c1.08-.58.48-3-1-4.14l-3.64-2.71a4.17 4.17 0 01-1.37-1.93l-1.63-4.73c-.68-1.95-2.61-3.07-3.28-1.9zm-25.07-13.89l-1.63 2.85a1 1 0 01-1.37.35l-3.64-1.5c-1.49-.61-2.08 1.15-1 3l2.63 4.47a3.4 3.4 0 01.52 2.15l-.62 3.8c-.25 1.56 1.3 3.75 2.64 3.72l3.26-.08a2.37 2.37 0 011.69 1l3.26 3.84c1.33 1.57 2.89 1.17 2.64-.68l-.62-4.52a1.44 1.44 0 01.52-1.54l2.63-1.43c1.08-.58.48-3-1-4.14l-3.64-2.76a4.17 4.17 0 01-1.37-1.93l-1.63-4.72c-.68-1.94-2.6-3.05-3.27-1.88z" fill="#fff"/><path d="M638.54 714.16c-20.57-12.33-54.23-12.89-75.2-1.25s-21.29 31.08-.72 43.42 53.87 12.9 75.22 1.49c23.47-12.54 21.27-31.28.7-43.66z" fill="#516eb5" opacity=".27"/><path d="M621.58 711.44c-19.53-11.71-51.51-12.24-71.42-1.19s-20.22 29.52-.69 41.23 51.16 12.25 71.44 1.42c22.31-11.9 20.2-29.75.67-41.46z" fill="#cb477c"/><path d="M620.89 699.3c-19.53-11.71-51.51-12.24-71.42-1.19s-20.22 29.52-.69 41.23 51.16 12.25 71.44 1.42c22.3-11.91 20.2-29.75.67-41.46z" fill="#ef599a"/><path fill="none" stroke="#fff" stroke-linecap="round" stroke-linejoin="round" stroke-width="10.429" d="M572.59 707.33l-5.8 19.9 46.93-10.62"/></g></svg>