<svg width="48" height="48" fill="none" xmlns="http://www.w3.org/2000/svg"><g clip-path="url(#clip0)" fill="#EC7451"><path d="M30.214 37.654a1.407 1.407 0 01-.176-2.801c4.444-.566 8.423-1.77 11.205-3.391 2.544-1.482 3.945-3.225 3.945-4.906 0-1.854-1.64-3.37-3.015-4.316a1.406 1.406 0 111.594-2.317C46.537 21.828 48 24.12 48 26.556c0 2.764-1.847 5.3-5.341 7.336-3.145 1.833-7.386 3.13-12.265 3.751a1.36 1.36 0 01-.18.011zm-6.557-2.014l-3.75-3.75a1.406 1.406 0 10-1.989 1.988l1.096 1.096c-4.201-.434-8.018-1.413-10.973-2.834-3.323-1.598-5.229-3.633-5.229-5.585 0-1.654 1.365-3.375 3.842-4.843a1.406 1.406 0 10-1.434-2.42C.906 21.85 0 24.654 0 26.555c0 3.12 2.423 6.004 6.822 8.12 3.415 1.642 7.832 2.742 12.644 3.167l-1.548 1.547a1.407 1.407 0 001.99 1.99l3.75-3.75a1.41 1.41 0 000-1.99z"/><path d="M14.728 23.74v-.338c0-1.194-.73-1.425-1.71-1.425-.606 0-.802-.535-.802-1.069 0-.535.196-1.069.802-1.069.676 0 1.389-.089 1.389-1.532 0-1.033-.588-1.282-1.319-1.282-.872 0-1.317.213-1.317.908 0 .606-.268 1.015-1.3 1.015-1.283 0-1.443-.267-1.443-1.122 0-1.39.997-3.188 4.06-3.188 2.263 0 3.973.819 3.973 3.224 0 1.3-.481 2.511-1.372 2.921 1.051.392 1.817 1.176 1.817 2.618v.339c0 2.921-2.013 4.026-4.507 4.026-3.063 0-4.239-1.87-4.239-3.367 0-.802.339-1.015 1.318-1.015 1.14 0 1.425.249 1.425.926 0 .837.784 1.033 1.585 1.033 1.212 0 1.64-.445 1.64-1.603zm13.591-.339v.16c0 3.065-1.907 4.205-4.365 4.205s-4.382-1.14-4.382-4.204v-4.72c0-3.064 1.977-4.204 4.543-4.204 3.01 0 4.204 1.87 4.204 3.348 0 .855-.41 1.122-1.3 1.122-.767 0-1.444-.195-1.444-1.015 0-.677-.712-1.033-1.55-1.033-1.05 0-1.674.552-1.674 1.781v1.603c.57-.623 1.372-.783 2.227-.783 2.03 0 3.74.89 3.74 3.74zm-5.968.357c0 1.229.606 1.763 1.603 1.763.998 0 1.586-.534 1.586-1.763v-.16c0-1.301-.588-1.8-1.604-1.8-.961 0-1.585.464-1.585 1.639v.32zm8.123-.196v-4.72c0-3.064 1.906-4.204 4.364-4.204s4.382 1.14 4.382 4.203v4.72c0 3.065-1.924 4.205-4.382 4.205-2.458 0-4.364-1.14-4.364-4.204zm5.967-4.72c0-1.23-.605-1.782-1.603-1.782-.997 0-1.585.552-1.585 1.781v4.72c0 1.23.588 1.782 1.585 1.782.998 0 1.603-.552 1.603-1.781v-4.72zm6.155-4.216a4.223 4.223 0 01-4.219-4.22 4.223 4.223 0 014.219-4.218 4.224 4.224 0 014.219 4.219 4.224 4.224 0 01-4.22 4.219zm0-5.626a1.408 1.408 0 000 2.813 1.407 1.407 0 000-2.813z"/></g><defs><clipPath id="clip0"><path fill="#fff" d="M0 0h48v48H0z"/></clipPath></defs></svg>