<svg width="32" height="32" fill="none" xmlns="http://www.w3.org/2000/svg"><path d="M15.44 11c-2.757 0-5 2.243-5 5s2.243 5 5 5 5-2.243 5-5-2.243-5-5-5zm0 8.75A3.754 3.754 0 0111.69 16a3.754 3.754 0 013.75-3.75A3.754 3.754 0 0119.19 16a3.754 3.754 0 01-3.75 3.75z" fill="#EC7451"/><path d="M28.577 26.485L21.9 19.807A7.454 7.454 0 0022.94 16a7.457 7.457 0 00-1.315-4.238V1.875A1.877 1.877 0 0019.75 0h-15a1.877 1.877 0 00-1.875 1.875v28.25c0 1.034.841 1.875 1.875 1.875h15a1.877 1.877 0 001.875-1.875v-5.29l4.3 4.301a1.87 1.87 0 001.327.549 1.87 1.87 0 001.873-1.874c0-.502-.195-.973-.548-1.326zM15.441 22.25A6.257 6.257 0 019.19 16a6.257 6.257 0 016.25-6.25A6.257 6.257 0 0121.69 16a6.257 6.257 0 01-6.25 6.25zm.173-21l-.173.345-.072.146c-.285.579-.408.759-.62.759H9.75c-.211 0-.334-.18-.619-.759a28.396 28.396 0 00-.072-.146l-.173-.345h6.728zm4.761 27h-5.313a.625.625 0 100 1.25h5.313v.625c0 .345-.28.625-.625.625h-15a.626.626 0 01-.625-.625V29.5h5.312a.625.625 0 000-1.25H4.125V1.875c0-.345.28-.625.625-.625h2.739l.452.905.069.138c.302.615.717 1.457 1.74 1.457h5c1.023 0 1.438-.842 1.74-1.457l.069-.138.452-.905h2.739c.345 0 .625.28.625.625v8.482A7.468 7.468 0 0015.441 8.5c-4.136 0-7.5 3.364-7.5 7.5s3.364 7.5 7.5 7.5a7.46 7.46 0 003.807-1.04l1.127 1.126v4.664zm7.318.003a.626.626 0 01-.883 0l-6.529-6.529c.319-.27.614-.565.884-.884l6.528 6.529a.62.62 0 01.182.442.62.62 0 01-.182.442z" fill="#EC7451"/><path d="M12.25 28.25a.625.625 0 10-.001 1.25.625.625 0 00.001-1.25z" fill="#EC7451"/></svg>