<svg width="48" height="48" fill="none" xmlns="http://www.w3.org/2000/svg"><path d="M47.1 41.032l-4.896-8.158.439-3.748h.623a2.006 2.006 0 002.004-2.003v-2.295a2.006 2.006 0 00-2.004-2.003h-2.749v-2.65a.7.7 0 00-.152-.438l-2.428-3.052v-2.562c0-.846-.688-1.533-1.533-1.533h-2.827a3.852 3.852 0 00-.054-.106c-.349-.655-1.309-1.494-2.854-2.493a1.117 1.117 0 01-.511-.944V7.184a.914.914 0 00.508-.819V2.453C30.666 1.1 29.566 0 28.215 0h-2.671a2.456 2.456 0 00-2.453 2.453v3.912c0 .359.207.67.508.819v1.863c0 .384-.191.737-.512.944-.255.165-.541.356-.832.563a3.754 3.754 0 00-3.746-3.914 3.754 3.754 0 00-3.666 4.54l.236 1.117a2.687 2.687 0 00-2.597.447 2.667 2.667 0 00-.973 1.81 2.661 2.661 0 00.588 1.964c.118.146.255.282.405.402l2.094 1.687a5.907 5.907 0 00-2.003 4.218H9.236l-.146-.276.065-.034c2.248-1.196 4.124-3.16 3.358-4.6-.766-1.441-3.443-.984-5.691.212a2.106 2.106 0 00-.066.035l-.945-1.777.066-.034c1.12-.596 2.087-1.34 2.723-2.098 1.047-1.246.847-2.103.634-2.502-.213-.4-.811-1.046-2.43-.874-.983.105-2.141.49-3.26 1.086l-.066.035-.71-1.331a5.017 5.017 0 01-.595-2.38 5.075 5.075 0 012.696-4.49 5.048 5.048 0 013.87-.374 5.048 5.048 0 013 2.472l1.212 2.278a.703.703 0 101.242-.66L12.98 5.235a6.493 6.493 0 00-8.773-2.68 6.478 6.478 0 00-2.68 8.772l6.115 11.498H4.78a2.006 2.006 0 00-2.004 2.003v2.295c0 1.104.899 2.003 2.004 2.003h.623l.438 3.748-4.895 8.158a2.016 2.016 0 00-.229 1.535c.132.525.46.968.924 1.247a2.02 2.02 0 001.046.29c.705 0 1.366-.368 1.737-.985l2.189-3.648.158 1.355a.704.704 0 001.397-.164l-.37-3.166 5.023-8.37h22.404l5.023 8.37-.883 7.544a1.757 1.757 0 01-1.746 1.554H10.426a1.757 1.757 0 01-1.746-1.555l-.185-1.585a.703.703 0 10-1.397.164l.186 1.584A3.164 3.164 0 0010.426 48H37.62a3.163 3.163 0 003.143-2.797l.67-5.733 2.19 3.649a2.027 2.027 0 103.477-2.087zM7.481 19.37c2.265-1.205 3.685-.99 3.79-.794.103.195-.512 1.493-2.777 2.698a3.517 3.517 0 01-.066.035l-1.013-1.905.066-.034zm-3.279-6.165c.951-.505 1.953-.844 2.75-.928.699-.074 1.006.073 1.04.135.032.062-.017.4-.47.938-.515.613-1.355 1.254-2.307 1.76l-.065.035-1.013-1.904.065-.036zM41.02 30.9l-1.065-1.774h1.272L41.02 30.9zm-14.257-8.075V20.42l2.217-2.787h7.914l1.462 1.838h-3.185a.703.703 0 100 1.407h3.94v1.947H26.763zm9.768-8.703v2.105h-7.187v-2.105c0-.07.057-.126.126-.126h6.934c.07 0 .127.057.127.126zM25.543 1.406h2.67c.578 0 1.047.47 1.047 1.047V5.87h-4.764V2.453c0-.577.47-1.047 1.047-1.047zm-1.694 9.766a2.518 2.518 0 001.155-2.125V7.278h3.748v1.769c0 .864.432 1.659 1.154 2.125.973.629 1.553 1.094 1.898 1.418H29.47c-.845 0-1.532.687-1.532 1.532v2.563l-2.428 3.051a.701.701 0 00-.153.438v2.65h-.934a5.91 5.91 0 00-2.002-4.217l.848-.684 1.244-1.001a2.7 2.7 0 00.404-.401 2.664 2.664 0 00.591-1.968 2.666 2.666 0 00-.974-1.809 2.666 2.666 0 00-2.09-.574c.384-.307.86-.646 1.405-.998zm-2.443 3.64c.194-.273.37-1.164 1.303-1.259.34-.034.672.065.936.281a1.275 1.275 0 01-.013 1.991l-1.245 1.003-1.179.95a5.932 5.932 0 00-.39-.183l.588-2.782zm-2.898-6.766a2.347 2.347 0 012.29 2.843l-.273 1.292-.004.02-1.057 5.001a5.967 5.967 0 00-1.912 0l-.009-.04-1.326-6.276a2.347 2.347 0 012.29-2.84zm-5.32 7.586a1.279 1.279 0 01.182-1.798 1.28 1.28 0 011.948.413l.293.57.556 2.634.03.144a6.033 6.033 0 00-.39.183c-2.56-2.074-2.474-1.967-2.619-2.146zm5.32 2.9a4.519 4.519 0 014.507 4.293H14a4.519 4.519 0 014.508-4.293zM6.818 29.126h1.273L7.026 30.9l-.208-1.774zm-3.6 13.27a.622.622 0 01-1.066-.64l5.015-8.358.002-.002 2.753-4.59a.711.711 0 00.028-.045l1.534-2.556a.617.617 0 01.534-.302.622.622 0 01.532.942l-.72 1.198a.769.769 0 00-.022.037l-8.59 14.315zM13.664 27.72l.092-.152c.278-.464.36-1.01.228-1.535a2.016 2.016 0 00-.924-1.247 2.015 2.015 0 00-1.535-.228c-.526.131-.968.46-1.247.924L8.934 27.72H4.78a.598.598 0 01-.598-.597v-2.295c0-.33.269-.597.598-.597h38.486c.33 0 .597.267.597.597v2.295c0 .33-.268.597-.597.597h-4.155l-1.343-2.238a2.013 2.013 0 00-1.247-.924 2.014 2.014 0 00-1.535.228 2.014 2.014 0 00-.924 1.247 2.014 2.014 0 00.229 1.535l.09.152H13.664zm31.784 14.971c-.013-.002-.41.053-.62-.296l-9.332-15.55a.622.622 0 011.066-.64l4.313 7.188a.267.267 0 00.004.005l5.015 8.358a.622.622 0 01-.446.935z" fill="#EC7451"/><path d="M16.76 35.266V32.94a1.88 1.88 0 00-1.877-1.878 1.88 1.88 0 00-1.878 1.878v2.326a1.88 1.88 0 001.878 1.878 1.88 1.88 0 001.877-1.878zm-2.349 0V32.94a.472.472 0 01.944 0v2.326a.472.472 0 01-.944 0zm6.919 7.6V40.54a1.88 1.88 0 00-1.877-1.878 1.88 1.88 0 00-1.878 1.878v2.326a1.88 1.88 0 001.878 1.878 1.88 1.88 0 001.878-1.878zm-2.349 0V40.54a.472.472 0 01.943 0v2.326a.472.472 0 01-.943 0zm6.92-7.6V32.94a1.88 1.88 0 00-1.878-1.878 1.88 1.88 0 00-1.878 1.878v2.326a1.88 1.88 0 001.878 1.878 1.88 1.88 0 001.878-1.878zm-2.35 0V32.94a.472.472 0 01.944 0v2.326a.472.472 0 01-.943 0zm6.919 7.6V40.54a1.88 1.88 0 00-1.877-1.878 1.88 1.88 0 00-1.878 1.878v2.326a1.88 1.88 0 001.878 1.878 1.88 1.88 0 001.878-1.878zm-2.348 0V40.54a.472.472 0 01.942 0v2.326a.472.472 0 01-.942 0zm6.919-7.6V32.94a1.88 1.88 0 00-1.878-1.878 1.88 1.88 0 00-1.878 1.878v2.326a1.88 1.88 0 001.878 1.878 1.88 1.88 0 001.878-1.878zm-2.35 0V32.94a.472.472 0 01.944 0v2.326a.472.472 0 01-.944 0z" fill="#EC7451"/></svg>