<svg width="48" height="48" fill="none" xmlns="http://www.w3.org/2000/svg"><path d="M47.725.275A.938.938 0 0047.062 0L24 .001a.938.938 0 00-.937.938v2.68l-8.887 2.382a.937.937 0 00-.663 1.148l4.606 17.188-3.984 3.985a2.811 2.811 0 00-2.322-1.228h-9a2.816 2.816 0 00-2.812 2.813v15.28A2.816 2.816 0 002.813 48h9c1.318 0 2.426-.91 2.73-2.136l1.114.973A4.724 4.724 0 0018.762 48h28.3c.518 0 .938-.42.938-.937V.937a.939.939 0 00-.275-.662zM12.751 45.188a.94.94 0 01-.938.937h-9a.939.939 0 01-.937-.937V29.907c0-.517.42-.938.937-.938h3.563v10.8a.938.938 0 001.875 0v-10.8h3.562c.517 0 .938.42.938.938v15.28zm2.816-37.619l7.496-2.008v3.474l-.629.168a.937.937 0 00-.663 1.148 2.527 2.527 0 01-1.784 3.092.937.937 0 00-.663 1.15l3.654 13.532h-1.881l-.97-3.794a.936.936 0 00-.157-.329L15.567 7.57zm7.496 5.765v7.91l-1.71-6.33a4.392 4.392 0 001.71-1.58zM36.53 46.125H18.762c-.689 0-1.354-.25-1.872-.702l-2.264-1.974V30.483l4.092-4.093.743 2.904c.106.415.48.705.908.705L38.801 30a1.314 1.314 0 010 2.625h-9.445a.938.938 0 000 1.875h12.379a1.314 1.314 0 010 2.625H29.356a.938.938 0 000 1.875H39.73a1.314 1.314 0 010 2.625H29.356a.938.938 0 000 1.875h7.175c.724 0 1.313.59 1.313 1.313s-.59 1.312-1.313 1.312zm9.594 0h-6.69a3.17 3.17 0 000-2.625h.294a3.191 3.191 0 003.187-3.187c0-.513-.122-.997-.338-1.427a3.192 3.192 0 002.344-3.073 3.17 3.17 0 00-.629-1.9v-11.88a.938.938 0 00-1.875 0V32.7a3.188 3.188 0 00-.683-.075h-.03a3.19 3.19 0 00-2.904-4.5h-1.508A4.493 4.493 0 0040.019 24a4.492 4.492 0 00-4.487-4.487A4.492 4.492 0 0031.044 24a4.493 4.493 0 002.725 4.125h-5.125V10.3a4.413 4.413 0 003.361-3.362h7.052a4.413 4.413 0 003.361 3.362v2.914a.938.938 0 001.875 0V9.463a.938.938 0 00-.937-.938 2.527 2.527 0 01-2.525-2.524.938.938 0 00-.937-.938h-8.726a.938.938 0 00-.937.938 2.527 2.527 0 01-2.525 2.524.938.938 0 00-.937.938v18.662h-1.831V1.876l21.187-.001v44.25zM35.53 26.612A2.615 2.615 0 0132.92 24a2.615 2.615 0 012.611-2.612A2.615 2.615 0 0138.143 24a2.615 2.615 0 01-2.612 2.612z" fill="#EC7451"/></svg>