<svg width="48" height="48" fill="none" xmlns="http://www.w3.org/2000/svg"><path d="M16.177 36.74a.974.974 0 00-.14-.337.902.902 0 00-.421-.345.922.922 0 00-.878.086.893.893 0 00-.26.259.887.887 0 00-.139.337.923.923 0 00.256.846.893.893 0 00.304.203.915.915 0 00.359.072.922.922 0 00.358-.072.926.926 0 00.507-.508.944.944 0 00.054-.54z" fill="#EC7451"/><path d="M43.124 37.03a.951.951 0 00-.011-.028c-.863-2.019-2.887-2.765-5.282-1.947l-6.53 1.806c-.378-1.144-1.32-2.117-2.652-2.61l-.025-.01-7.18-2.436c-.597-.773-2.469-2.75-5.974-2.75-2.449 0-4.615 1.68-5.855 3.512H.937a.937.937 0 00-.937.938v11.82c0 .517.42.937.938.937h5.574c.517 0 .937-.42.937-.938v-.809h2.614c.518 0 .938-.42.938-.938v-.27c1.523.134 2.025.423 3.424 1.23 1.076.62 2.703 1.558 5.632 2.875a8.414 8.414 0 003.057.586c.944 0 2.011-.168 3.107-.665l14.436-5.169a.906.906 0 00.076-.03c1.38-.636 3.436-2.425 2.391-5.104zm-37.55 7.357H1.875v-9.945h3.7v9.945zm3.552-1.747H7.449v-8.198h1.677v8.198zm30.858-2.226l-14.43 5.166a1.363 1.363 0 00-.08.033c-2.01.924-3.92.37-4.669.08-2.83-1.274-4.34-2.145-5.443-2.78-1.534-.885-2.274-1.312-4.361-1.484v-7.551c.888-1.456 2.612-2.947 4.47-2.947 3.186 0 4.536 2.072 4.589 2.155a.93.93 0 00.497.397l7.451 2.53c1.19.446 1.819 1.465 1.53 2.481-.134.47-.442.859-.868 1.096a1.816 1.816 0 01-1.377.165l-8.399-2.662a.937.937 0 10-.566 1.788l8.414 2.666.026.008a3.682 3.682 0 002.814-.327 3.677 3.677 0 001.817-2.449l7.039-1.95c1.016-.347 2.35-.472 2.945.896.615 1.607-.983 2.49-1.399 2.689zm-6.322-28.082a.91.91 0 00-.14-.337.902.902 0 00-.26-.259.95.95 0 00-.336-.14.927.927 0 00-.704.14.893.893 0 00-.259.259.953.953 0 00-.158.52.93.93 0 00.158.52.902.902 0 00.421.345.95.95 0 00.542.054.993.993 0 00.337-.14.893.893 0 00.258-.258.866.866 0 00.087-.163.883.883 0 00.072-.358.922.922 0 00-.018-.183z" fill="#EC7451"/><path d="M47.063 3.177h-5.574a.937.937 0 00-.938.938v.809h-2.614a.937.937 0 00-.937.937v.27c-1.524-.133-2.025-.422-3.425-1.229-1.076-.62-2.703-1.558-5.632-2.875a.787.787 0 00-.041-.018c-.954-.375-3.453-1.113-6.122.097l-3.773 1.35-3.18-3.18a.938.938 0 00-1.325 0l-10.44 10.44a.93.93 0 000 1.326l17.84 17.84c.285.285.953.371 1.325 0l9.531-9.531c.248.02.505.033.772.033 2.449 0 4.615-1.68 5.855-3.512h8.678c.517 0 .937-.42.937-.938V4.114a.937.937 0 00-.937-.937zm-32.899-.912l2.137 2.137a4.047 4.047 0 01-2.137.603c-.767 0-1.501-.21-2.136-.603l2.136-2.137zM7.187 13.516l-2.136-2.137 2.136-2.137c.393.636.603 1.37.603 2.137 0 .767-.21 1.502-.603 2.137zm14.377 14.377l-2.136-2.137a4.082 4.082 0 014.273 0l-2.137 2.137zm3.487-3.487a5.958 5.958 0 00-6.974 0l-9.539-9.54a5.902 5.902 0 001.127-3.487c0-1.271-.395-2.48-1.127-3.487l2.14-2.14a5.902 5.902 0 003.486 1.128 5.902 5.902 0 003.488-1.127L19.68 7.78a3.7 3.7 0 00-1.262.431c-.672.374-1.2.935-1.528 1.613a5.342 5.342 0 00-2.805 1.476 5.35 5.35 0 000 7.558 5.327 5.327 0 003.78 1.563 5.326 5.326 0 003.778-1.563 5.323 5.323 0 001.39-2.419l3.166 1.074a5.985 5.985 0 00.993 4.752l-2.14 2.14zm-5.7-9.217l.025.009 1.875.636a3.473 3.473 0 01-5.84 1.698 3.473 3.473 0 011.131-5.66c.173 1.44 1.21 2.723 2.81 3.317zm9.192 5.725a4.1 4.1 0 01-.599-1.95 7.29 7.29 0 001.653.896l-1.054 1.054zm8.456-5.353c-.888 1.456-2.611 2.947-4.47 2.947a6.83 6.83 0 01-.977-.069h-.004c-2.025-.294-3.114-1.445-3.473-1.9-.019-.029-.1-.135-.112-.153a.934.934 0 00-.517-.43l-7.454-2.53c-1.19-.446-1.818-1.465-1.53-2.48v-.002l.001-.003c.134-.468.442-.856.867-1.092.423-.236.91-.294 1.377-.165l8.399 2.662a.937.937 0 10.566-1.788l-6.68-2.117-.058-.058-.002-.002-3.458-3.458 2.972-1.065.033-.012.01-.004a.876.876 0 00.037-.016c2.01-.924 3.92-.371 4.669-.08 2.83 1.273 4.34 2.144 5.443 2.78 1.535.885 2.274 1.311 4.361 1.484v7.55zm3.552-.564h-1.676V6.799h1.676v8.198zm5.574 0h-3.699V5.052h3.7v9.945z" fill="#EC7451"/></svg>