<svg width="48" height="48" fill="none" xmlns="http://www.w3.org/2000/svg"><path d="M34.313 37.125a.938.938 0 100 1.876.938.938 0 000-1.876z" fill="#EC7451"/><path d="M36.62 34.093l-4.455-1.485-1.6-3.199a10.268 10.268 0 002.78-5.432l.199-1.196h1.706a2.816 2.816 0 002.813-2.812v-5.907C38.063 6.309 31.753 0 24 0 16.226 0 9.937 6.29 9.937 14.063v5.906c0 1.222.784 2.264 1.876 2.651v1.099a2.816 2.816 0 002.812 2.812h.823a10.167 10.167 0 001.986 2.88l-1.599 3.197-4.456 1.486c-5.181 1.727-8.941 7.181-8.941 12.968 0 .518.42.938.937.938h41.25c.518 0 .938-.42.938-.938 0-5.787-3.76-11.24-8.942-12.969zm-.432-14.124a.938.938 0 01-.938.937h-1.43a61.22 61.22 0 00.46-5.745l.005-.161h1.903v4.969zm-23.438.937a.939.939 0 01-.938-.937V15h1.903l.01.295v.01c.066 1.883.223 3.796.456 5.601H12.75zm1.875 3.75a.939.939 0 01-.938-.937v-.938h.77l.199 1.196c.038.228.084.454.138.68h-.169zm-.936-11.531h-1.84C12.322 6.842 17.566 1.875 24 1.875c6.405 0 11.672 4.966 12.152 11.25H34.31c-.068-5.178-4.284-9.375-9.472-9.375H23.16c-5.188 0-9.405 4.197-9.472 9.375zm9.472-7.5h1.678c4.2 0 7.6 3.436 7.599 7.632 0 .295-.003.552-.008.786v.009l-1.172-.168a15.064 15.064 0 01-8.47-4.234.938.938 0 00-.663-.275 8.482 8.482 0 00-6.521 3.085c.393-3.817 3.62-6.835 7.557-6.835zm-6.423 19.031c-.47-1.561-1.006-6.155-1.125-9.098l1.262-1.683a6.599 6.599 0 014.88-2.614 16.957 16.957 0 009.237 4.48l1.38.197a57.713 57.713 0 01-.55 5.731c-.087.581-.154.955-.327 2-.497 2.978-2.719 5.67-5.652 6.404a7.624 7.624 0 01-3.686 0c-1.831-.458-3.51-1.725-4.594-3.542h1.91a2.817 2.817 0 002.652 1.875H24a2.812 2.812 0 100-5.625h-1.875c-1.25 0-2.276.807-2.653 1.875h-2.734zm5.308 7.314a9.482 9.482 0 003.487.079L23.876 33.8l-1.83-1.83zm.542 3.194l-2.974 3.144a35.729 35.729 0 01-2.099-4.867l1.117-2.233 3.956 3.956zm6.621-4.274l1.276 2.55a35.708 35.708 0 01-2.1 4.87l-3.182-3.183 4.006-4.237zm-8.021-5.296c0-.518.42-.938.937-.938H24a.939.939 0 010 1.875h-1.875a.939.939 0 01-.938-.937zM4.35 46.125c.372-4.644 3.462-8.866 7.622-10.253l3.946-1.315c.723 2 1.62 3.942 2.669 5.788l.005.01a37.581 37.581 0 002.566 3.919l1.154 1.851H4.35zM24 45.289l-1.271-2.04a.98.98 0 00-.046-.068 35.72 35.72 0 01-2.112-3.155l3.343-3.536 3.523 3.523a35.719 35.719 0 01-2.12 3.168c-.046.062.02-.035-1.317 2.108zm1.688.836l1.154-1.851a37.575 37.575 0 002.584-3.95l.014-.025.001-.003a37.536 37.536 0 002.64-5.739l3.947 1.315c4.16 1.387 7.25 5.609 7.622 10.253H25.688z" fill="#EC7451"/><path d="M40.833 42.33a9.375 9.375 0 00-2.654-3.221.937.937 0 10-1.144 1.486 7.486 7.486 0 012.12 2.574.938.938 0 001.678-.838z" fill="#EC7451"/></svg>