<svg width="48" height="48" fill="none" xmlns="http://www.w3.org/2000/svg"><path d="M46.28 25.72l-9.31-9.31a2.233 2.233 0 00-1.592-.66H22.5v1.5h3.75V28.5h1.5V17.25h7.628a.75.75 0 01.531.22l1.28 1.28H33.75a1.5 1.5 0 00-1.5 1.5V27a1.5 1.5 0 001.5 1.5H45v6a.75.75 0 01-.75.75h-1.56a5.243 5.243 0 00-10.38 0H21.69a5.243 5.243 0 00-10.38 0H9.75A.75.75 0 019 34.5v-6.75H7.5v6.75a2.25 2.25 0 002.25 2.25h1.56c.164 1.14.7 2.195 1.523 3H1.5v1.5h36a5.255 5.255 0 005.19-4.5h1.56a2.25 2.25 0 002.25-2.25v-8.25a.75.75 0 00-.22-.53zM12.75 36a3.75 3.75 0 117.5 0 3.75 3.75 0 01-7.5 0zm7.417 3.75a5.233 5.233 0 001.523-3h10.62c.164 1.14.7 2.195 1.523 3H20.167zm17.333 0a3.75 3.75 0 110-7.5 3.75 3.75 0 010 7.5zM33.75 27v-6.75h4.94L45 26.56V27H33.75z" fill="#EC7451"/><path d="M17.25 35.25h-1.5v1.5h1.5v-1.5zm21 0h-1.5v1.5h1.5v-1.5zM5.25 33H1.5v1.5h3.75V33zm0-3H3v1.5h2.25V30zm0-3h-1.5v1.5h1.5V27zm6-.75A9.75 9.75 0 101.5 16.5a9.761 9.761 0 009.75 9.75zm0-18A8.25 8.25 0 113 16.5a8.26 8.26 0 018.25-8.25z" fill="#EC7451"/><path d="M11.25 23.25a.75.75 0 00.53-.22c.483-.483 4.72-4.813 4.72-8.03A5.25 5.25 0 106 15c0 3.218 4.237 7.547 4.72 8.03.14.14.331.22.53.22zm0-12A3.754 3.754 0 0115 15c0 1.924-2.36 4.898-3.75 6.413C9.86 19.898 7.5 16.924 7.5 15a3.754 3.754 0 013.75-3.75z" fill="#EC7451"/><path d="M13.5 15A2.25 2.25 0 109 15a2.25 2.25 0 004.5 0zm-3 0a.75.75 0 111.5 0 .75.75 0 01-1.5 0zM33 30h-3v1.5h3V30z" fill="#EC7451"/></svg>