<svg width="48" height="48" fill="none" xmlns="http://www.w3.org/2000/svg"><g clip-path="url(#clip0)" fill="#EC7451"><path d="M10.988 24.389a.934.934 0 00.65-.263 1.552 1.552 0 012.137 0 .938.938 0 101.303-1.35c-1.305-1.26-3.432-1.261-4.74 0a.937.937 0 00.65 1.613z"/><path d="M38.038 39.153c-.21-.062-.424-.125-.638-.19v-1.612a6.102 6.102 0 002.45-4.889v-1.34c0-3.373-2.738-6.119-6.104-6.119a6.11 6.11 0 00-6.103 6.104v1.355c0 1.997.963 3.774 2.45 4.889v1.612c-.215.065-.428.128-.639.19-1.403.413-2.901.855-4.04 1.812v-4.281c-.081-5.017-4.183-6.122-7.479-7.01-.443-.12-.87-.235-1.282-.356v-1.695a8.712 8.712 0 004.757-7.755v-4.074c0-4.799-3.904-8.703-8.703-8.703-4.798 0-8.702 3.904-8.702 8.703v4.074a8.712 8.712 0 004.757 7.755v1.695c-.412.121-.84.236-1.283.356C4.184 30.564.082 31.67 0 36.685v10.377c0 .518.42.938.938.938h7.56a.938.938 0 000-1.876H7.1v-5.81a.938.938 0 00-1.875 0v5.81h-3.35V36.71c.058-3.356 2.34-4.212 6.092-5.224.325-.087.655-.176.984-.27a3.953 3.953 0 003.756 2.743 3.953 3.953 0 003.757-2.743c.328.093.658.182.983.27 3.752 1.011 6.034 1.867 6.093 5.224v9.415h-3.35v-5.81a.938.938 0 00-1.875 0v5.81h-1.398a.938.938 0 000 1.875h26.098c.518 0 .938-.42.938-.937v-1.554c-.076-4.635-3.178-5.549-5.915-6.355zM12.708 8.967a6.835 6.835 0 016.827 6.828v1.045c-1.562-.181-2.742-.464-3.646-1.649a.938.938 0 00-1.274-.205c-2.55 1.746-6.012 2.057-8.735 1.956v-1.147a6.835 6.835 0 016.827-6.828zM5.88 19.87v-1.05c2.775.094 6.26-.218 9.089-1.843 1.302 1.273 2.885 1.567 4.566 1.751v1.142a6.838 6.838 0 01-4.209 6.304 6.79 6.79 0 01-2.619.523 6.788 6.788 0 01-2.675-.547 6.838 6.838 0 01-4.152-6.28zm6.827 12.214c-1.142 0-2.07-.93-2.07-2.074v-1.688a8.69 8.69 0 004.141 0v1.688a2.074 2.074 0 01-2.07 2.074zm21.04-5.205c2.068 0 3.793 1.5 4.156 3.472a9.569 9.569 0 00-4.157-.952c-1.45 0-2.878.333-4.16.953a4.234 4.234 0 014.16-3.473zm-4.227 5.667c2.516-1.684 5.936-1.684 8.453 0a4.234 4.234 0 01-4.227 4.148 4.234 4.234 0 01-4.226-4.148zm6.005 5.758v1.345c0 1.172-.96 1.706-1.853 1.706-.94 0-1.704-.765-1.704-1.706v-1.345a6.08 6.08 0 003.557 0zm6.553 7.822H25.414v-.594c.056-3.25 1.852-3.779 4.57-4.58l.32-.094a3.585 3.585 0 003.368 2.372c1.678 0 3.03-.96 3.524-2.37l.312.093c2.718.8 4.514 1.33 4.57 4.58v.593z"/><path d="M45.992 0H25.936a2.01 2.01 0 00-2.008 2.009v13.326a2.01 2.01 0 002.008 2.006h.803l-1.048 4.661a.937.937 0 001.47.961l7.653-5.622h11.178A2.01 2.01 0 0048 15.335V2.008A2.01 2.01 0 0045.992 0zm.133 15.335a.137.137 0 01-.133.131H34.506c-.2 0-.394.064-.555.182l-5.88 4.32.754-3.359a.938.938 0 00-.914-1.143h-1.975a.137.137 0 01-.133-.13V2.007c0-.07.062-.133.133-.133h20.056c.071 0 .133.062.133.134v13.326z"/><path d="M29.021 5.741h2.198a.938.938 0 000-1.875h-2.198a.938.938 0 000 1.875zm6.984 0h7.064a.938.938 0 000-1.875h-7.064a.938.938 0 000 1.875zm7.151 1.992H29.109a.938.938 0 000 1.875h14.047a.938.938 0 000-1.875zm-.042 3.867h-2.2a.938.938 0 000 1.875h2.2a.938.938 0 000-1.875zm-6.984 0h-7.066a.938.938 0 000 1.875h7.066a.938.938 0 000-1.875zM12.707 46.125a.938.938 0 000 1.875h.006c.518 0 .935-.42.935-.938a.94.94 0 00-.94-.937z"/></g><defs><clipPath id="clip0"><path fill="#fff" d="M0 0h48v48H0z"/></clipPath></defs></svg>