<svg width="48" height="48" fill="none" xmlns="http://www.w3.org/2000/svg"><path d="M5.09 5.758h1.46v1.43H5.09v-1.43zm2.92 0h1.46v1.43H8.01v-1.43zm2.922 0h1.46v1.43h-1.46v-1.43zm.986 8.419h1.449v1.43h-1.449v-1.43z" fill="#EC7451"/><path d="M32.087 11.257h-8.763V5.415h-5.841v-2.92H0v7.958h17.483V6.845h4.412v10.597h-4.412v-3.264H14.82v1.43h1.232v5.099H1.43v-5.1h9.015v-1.43H0v7.96h17.483v-3.265h5.841v-6.185h7.334v21.925h-7.334V28.6h-5.841v-2.74H0v7.96h3.155v-1.43H1.43v-5.1h14.623v5.1H4.603v1.43h12.88v-3.793h4.412v10.598h-4.412v-3.08H0v7.958h17.483v-3.449h5.841v-6.013h8.763V24.938h2.206v-1.43h-2.206V11.257zM16.053 9.023H1.43v-5.1h14.623v5.1zm0 35.051H1.43v-5.1h14.623v5.1z" fill="#EC7451"/><path d="M48 22.507l-4.807-.698-2.15-4.356-2.149 4.356-4.807.698 3.478 3.39-.82 4.787 4.299-2.26 4.299 2.26-.821-4.787L48 22.507zm-6.956 4.302l-2.4 1.262.458-2.673-1.942-1.893 2.684-.39 1.2-2.431 1.2 2.431 2.684.39-1.942 1.893.458 2.673-2.4-1.262zM5.09 17.443h7.302v1.43H5.09v-1.43zm0 23.367h1.46v1.43H5.09v-1.43zm2.921 0h1.46v1.43h-1.46v-1.43zm2.921 0h1.46v1.43h-1.46v-1.43zM5.09 29.125h7.302v1.43H5.09v-1.43z" fill="#EC7451"/></svg>