<svg width="48" height="48" fill="none" xmlns="http://www.w3.org/2000/svg"><g clip-path="url(#clip0)" fill="#EC7451"><path d="M38.817 41.053a3.191 3.191 0 00-4.508 0c-.8.8-1.084 1.924-.854 2.954A21.892 21.892 0 0124 46.125C11.8 46.125 1.875 36.2 1.875 24c0-5.75 2.196-11.2 6.183-15.342a.938.938 0 10-1.351-1.3A23.884 23.884 0 000 24c0 6.41 2.496 12.438 7.03 16.97A23.843 23.843 0 0024 48a23.75 23.75 0 0010.39-2.362c.61.57 1.392.855 2.173.855.816 0 1.633-.31 2.254-.932a3.191 3.191 0 000-4.508zm-1.326 3.182a1.314 1.314 0 01-1.856 0 1.314 1.314 0 01.928-2.24 1.314 1.314 0 01.928 2.24zm8.772-11.257A23.832 23.832 0 0048 24a24.046 24.046 0 00-4.98-14.635 3.193 3.193 0 00-.458-3.927 3.191 3.191 0 00-4.508 0 3.191 3.191 0 000 4.508 3.198 3.198 0 003.553.656A22.169 22.169 0 0146.125 24c0 2.82-.521 5.555-1.548 8.143a3.185 3.185 0 10-.51 6.33c.817 0 1.633-.31 2.255-.932a3.191 3.191 0 000-4.508l-.059-.055zM41.236 8.62l-.013.012-.024.021a1.313 1.313 0 01-1.82-.033 1.314 1.314 0 01.93-2.24 1.314 1.314 0 01.928 2.24zm3.76 27.596a1.314 1.314 0 01-1.856 0 1.314 1.314 0 01.928-2.24 1.316 1.316 0 01.928.383 1.314 1.314 0 010 1.856zM33.95.934a3.192 3.192 0 00-4.23-.247A24.103 24.103 0 0024 0c-3.84 0-7.509.88-10.905 2.615a.938.938 0 00.853 1.67A21.885 21.885 0 0124 1.875c1.558 0 3.108.163 4.62.484a3.189 3.189 0 00.822 3.082 3.178 3.178 0 002.254.932c.816 0 1.633-.31 2.254-.932a3.191 3.191 0 000-4.507zm-1.326 3.182a1.314 1.314 0 01-1.856 0 1.314 1.314 0 01.928-2.24c.336 0 .672.128.928.383a1.314 1.314 0 010 1.857zm-21.607.812a.938.938 0 00-1.31-.21l-.01.008A.937.937 0 0010.8 6.243l.007-.006a.938.938 0 00.21-1.31z"/><path d="M31.875 15.188h-15.75a.938.938 0 00-.938.937v15.75c0 .518.42.938.938.938h15.75c.518 0 .938-.42.938-.938v-15.75a.938.938 0 00-.938-.938zm-.938 15.75H17.063V17.063h13.875v13.875z"/><path d="M39.281 22.688a.938.938 0 000-1.875h-2.718v-2.625h2.718a.938.938 0 000-1.875h-2.718v-3.938a.938.938 0 00-.938-.938h-3.938V8.72a.938.938 0 00-1.875 0v2.719h-2.625v-2.72a.938.938 0 00-1.875 0v2.72h-2.625v-2.72a.938.938 0 00-1.875 0v2.72h-2.625v-2.72a.938.938 0 00-1.875 0v2.72h-3.937a.938.938 0 00-.938.937v3.938H8.72a.938.938 0 000 1.875h2.719v2.625h-2.72a.938.938 0 000 1.875h2.72v2.625h-2.72a.938.938 0 000 1.875h2.72v2.625h-2.72a.938.938 0 000 1.875h2.72v3.937c0 .518.42.938.937.938h3.938v2.718a.938.938 0 001.875 0v-2.718h2.625v2.718a.938.938 0 001.875 0v-2.718h2.625v2.718a.938.938 0 001.875 0v-2.718h2.625v2.718a.938.938 0 001.875 0v-2.718h3.937c.518 0 .938-.42.938-.938v-3.938h2.718a.938.938 0 000-1.875h-2.718v-2.625h2.718a.938.938 0 000-1.875h-2.718v-2.625h2.718zm-4.593 12H13.311V13.311h21.376v21.376z"/><path d="M27.75 19.313h-3.862a.938.938 0 000 1.875h3.862a.938.938 0 000-1.875zm-7.337.274a.944.944 0 00-.663-.274.94.94 0 00-.663 1.6.944.944 0 00.663.274c.247 0 .489-.1.663-.274a.944.944 0 00.275-.663c0-.247-.1-.488-.275-.663zm7.337 3.476h-8a.938.938 0 000 1.875h8a.938.938 0 000-1.875zm-7.337 4.024a.944.944 0 00-.663-.274c-.246 0-.488.1-.663.274a.943.943 0 000 1.326.949.949 0 00.663.274c.247 0 .489-.1.663-.274a.944.944 0 00.275-.663c0-.247-.1-.488-.275-.663zm3.861 0a.944.944 0 00-.663-.274c-.246 0-.488.1-.663.274a.944.944 0 00-.274.663c0 .247.1.488.274.663a.945.945 0 00.663.274c.248 0 .489-.1.663-.274a.944.944 0 00.275-.663c0-.248-.1-.488-.275-.663zm4.139 0a.944.944 0 00-.663-.274c-.247 0-.488.1-.663.274a.943.943 0 00-.274.663c0 .247.1.488.274.663a.945.945 0 00.663.274c.247 0 .488-.1.663-.274a.944.944 0 00.274-.663c0-.248-.1-.488-.274-.663z"/></g><defs><clipPath id="clip0"><path fill="#fff" d="M0 0h48v48H0z"/></clipPath></defs></svg>