<svg xmlns="http://www.w3.org/2000/svg" width="185.063" height="47.9"><path data-name="Fill 1" d="M2.534 20.974l7.742 11.672a3.526 3.526 0 002.246 1.512 3.527 3.527 0 002.657-.519 3.538 3.538 0 00.993-4.9L2.028 7.238a13.2 13.2 0 00.506 13.736" fill="#fff"/><path data-name="Fill 4" d="M4.972.606l-.033.022-.032.022a3.774 3.774 0 00-1.006 5.22l2.535 3.823A6.077 6.077 0 018.85 6.524a6.076 6.076 0 013.859-.991L10.173 1.71A3.819 3.819 0 006.996 0a3.664 3.664 0 00-2.024.606" fill="#fff"/><path data-name="Fill 7" d="M12.052.589l10.909 16.275a3.538 3.538 0 004.9.993 3.538 3.538 0 00.992-4.9l-4.344-6.558A13.177 13.177 0 0013.504.509a13.307 13.307 0 00-1.452.08" fill="#fff"/><path data-name="Fill 10" d="M14.143 14.072a3.537 3.537 0 00-.993 4.9l14.27 21.69a13.2 13.2 0 00-.506-13.736l-7.867-11.862a3.536 3.536 0 00-2.952-1.582 3.521 3.521 0 00-1.952.59" fill="#fff"/><path data-name="Fill 13" d="M20.597 41.376a6.072 6.072 0 01-3.859.991l2.536 3.823a3.774 3.774 0 005.2 1.1l.033-.022.031-.018a3.774 3.774 0 001.008-5.221l-2.535-3.822a6.072 6.072 0 01-2.414 3.169" fill="#fff"/><path data-name="Fill 16" d="M1.582 30.043a3.538 3.538 0 00-.993 4.9l4.348 6.555a13.146 13.146 0 008.373 5.629 13.261 13.261 0 004.085.181L6.486 31.036a3.535 3.535 0 00-2.952-1.583 3.521 3.521 0 00-1.952.59" fill="#fff"/><path data-name="Fill 19" d="M58.608 23.31a38.779 38.779 0 00-4.442-1.289 19.936 19.936 0 01-3.883-1.17 1.923 1.923 0 01-1.272-1.814 2.277 2.277 0 011.1-1.967 6.17 6.17 0 013.408-.746 13.241 13.241 0 016.579 1.865l1.7-4.171a13.137 13.137 0 00-3.8-1.56 18.269 18.269 0 00-4.442-.542 13.773 13.773 0 00-5.511.983 7.529 7.529 0 00-3.374 2.662 6.608 6.608 0 00-1.119 3.748 5.584 5.584 0 001.238 3.8 7.215 7.215 0 002.967 2.066 38.565 38.565 0 004.443 1.289q1.763.407 2.8.746a5.019 5.019 0 011.7.9 1.767 1.767 0 01.661 1.407 2.1 2.1 0 01-1.119 1.848 6.715 6.715 0 01-3.459.7 13.616 13.616 0 01-4.205-.678 12.648 12.648 0 01-3.628-1.8l-1.873 4.129a12.764 12.764 0 004.222 1.984 19.421 19.421 0 005.443.763 13.9 13.9 0 005.527-.983 7.635 7.635 0 003.408-2.658 6.483 6.483 0 001.136-3.713 5.457 5.457 0 00-1.236-3.764 7.36 7.36 0 00-2.967-2.035" fill="#fff"/><path data-name="Fill 21" d="M69.086 36.061h-5.629l10.58-23.738h5.425l10.615 23.736h-5.764l-2.1-5.086H71.189l-2.1 5.086zm7.631-18.346l-3.765 9.088h7.529z" fill="#fff"/><path data-name="Fill 23" d="M92.553 36.061h5.494v-8.648h10.987v-4.408H98.047v-6.274h12.445v-4.408H92.553z" fill="#fff"/><path data-name="Fill 25" d="M133.247 41.516a10.072 10.072 0 01-4.782-1.136 20.752 20.752 0 01-4.883-4.018 13.414 13.414 0 01-5.748-2.069 11.685 11.685 0 01-3.933-4.289 12.174 12.174 0 01-1.408-5.812 12.05 12.05 0 011.679-6.291 11.884 11.884 0 014.645-4.391 13.915 13.915 0 016.664-1.594 13.814 13.814 0 016.647 1.594 11.877 11.877 0 016.341 10.682 11.876 11.876 0 01-2.323 7.257 12.066 12.066 0 01-6.153 4.34 6.069 6.069 0 001.645 1.272 3.859 3.859 0 001.713.39 5.182 5.182 0 003.865-1.763l2.442 2.917a7.626 7.626 0 01-2.8 2.17 8.684 8.684 0 01-3.611.741zm-7.766-24.92a7.566 7.566 0 00-3.8.967 6.96 6.96 0 00-2.662 2.7 7.96 7.96 0 00-.967 3.934 7.96 7.96 0 00.967 3.934 6.968 6.968 0 002.662 2.7 7.566 7.566 0 003.8.967 7.566 7.566 0 003.8-.967 6.968 6.968 0 002.662-2.7 7.96 7.96 0 00.967-3.934 7.96 7.96 0 00-.967-3.934 6.961 6.961 0 00-2.662-2.7 7.566 7.566 0 00-3.8-.967z" fill="#fff"/><path data-name="Fill 27" d="M144.776 36.061h-5.629l10.58-23.738h5.425l10.615 23.736h-5.765l-2.1-5.086h-11.023l-2.1 5.086zm7.63-18.346l-3.764 9.088h7.529z" fill="#fff"/><path data-name="Fill 29" d="M164.377 12.323v4.476h7.6v19.262h5.49V16.799h7.6v-4.476z" fill="#fff"/></svg>