<svg width="40" height="40" fill="none" xmlns="http://www.w3.org/2000/svg"><path d="M35.405 29.78a.781.781 0 100-1.563.781.781 0 000 1.562z" fill="#EC7451"/><path d="M39.977 22.557a.785.785 0 00-.363-.484l-6.036-3.56a2.706 2.706 0 00-.827-1.156c-.073-.26-.39-.927-.46-1.038a2.66 2.66 0 00-.295-1.833 2.707 2.707 0 00-1.405-1.208 2.665 2.665 0 00-.09-2.33 2.71 2.71 0 00-1.668-1.33 2.788 2.788 0 00-.679-.103 2.662 2.662 0 00-.334-1.57 2.714 2.714 0 00-1.645-1.286 2.758 2.758 0 00-2.074.233c-.078.042-1.434.762-3.352 1.793a7126.5 7126.5 0 00-4.026-2.364 2.758 2.758 0 00-3.745.923 2.661 2.661 0 00-.313 2.044l.006.021a2.748 2.748 0 00-1.704 1.23 2.66 2.66 0 00-.314 2.045l.006.02a2.75 2.75 0 00-1.704 1.23 2.657 2.657 0 00-.359 1.82 5.671 5.671 0 00-.35.374c-.535.218-.997.6-1.302 1.101a2.661 2.661 0 00-.393 1.463l-6.142 3.34a.781.781 0 00-.309 1.07l6.002 10.662a.781.781 0 001.057.301l4.163-2.291a.781.781 0 00.303-1.069l-.78-1.384 1.965-1.087a8.078 8.078 0 003.638.866c1.356 0 2.732-.338 4.044-1.013a8.482 8.482 0 003.12.607c1.16 0 2.307-.25 3.39-.748l1.925 1.152-.83 1.357a.784.784 0 00.266 1.079l4.08 2.433a.784.784 0 001.067-.264l.73-1.198a.782.782 0 00-1.333-.814l-.328.538-2.736-1.633 5.555-9.086 2.74 1.608-1.569 2.571a.782.782 0 001.334.814l1.983-3.25a.784.784 0 00.09-.596zm-9.458.204l1.804-.94a2.706 2.706 0 001.269-1.489l.458.268-4.31 7.063-1.622-.97s2.39-3.91 2.4-3.932zM14.311 8.058a1.17 1.17 0 011.01-.558 1.2 1.2 0 01.606.166l1.488.88c.268.159.456.41.53.707.073.29.026.593-.131.85a1.13 1.13 0 01-.329.345l-.213.116a1.203 1.203 0 01-1.032-.044l-1.53-.904a1.137 1.137 0 01-.53-.706 1.11 1.11 0 01.131-.852zm-2.01 3.295c.213-.35.59-.558 1.007-.558.213 0 .423.057.607.166l2.604 1.54a1.13 1.13 0 01.4 1.558 1.2 1.2 0 01-1.573.417l-2.648-1.565a1.135 1.135 0 01-.53-.705 1.11 1.11 0 01.132-.853zm-2.013 3.295a1.186 1.186 0 011.615-.392l2.679 1.584c.268.158.456.41.53.706a1.11 1.11 0 01-.131.852 1.189 1.189 0 01-1.615.392l-2.679-1.584a1.136 1.136 0 01-.53-.707 1.108 1.108 0 01.131-.85zm1.092 3.782c.268.16.456.41.53.707.073.292.026.594-.131.852a1.19 1.19 0 01-1.616.392l-1.488-.88a1.136 1.136 0 01-.53-.706 1.108 1.108 0 01.131-.852 1.186 1.186 0 011.616-.392l1.488.88zM7.084 32.224L1.852 22.93l2.795-1.514 5.23 9.27-2.793 1.538zm2.992-4.363l-4.062-7.202 1.043-.563c.216.3.494.556.824.751l.62.367 3.235 5.73-1.66.917zm3.298-1.192L10.8 22.107a2.743 2.743 0 002.313-1.304c.25-.408.382-.863.393-1.327a2.744 2.744 0 002.81-1.264 2.66 2.66 0 00.313-2.044l-.02-.075a2.724 2.724 0 001.644-1.22 2.685 2.685 0 00-.124-2.982l6.708-3.62.009-.005c.278-.152.6-.189.907-.102.304.085.554.28.705.548.149.264.184.569.101.859a1.154 1.154 0 01-.561.696l-.002.001-4.353 2.376a.781.781 0 10.749 1.371l5.111-2.79c.28-.152.602-.188.908-.102.311.087.565.289.715.567.295.545.065 1.245-.51 1.558l-5.074 2.77a.781.781 0 00.75 1.37l4.736-2.585c.277-.15.597-.185.901-.1.304.086.554.28.705.55.148.263.184.567.101.858a1.152 1.152 0 01-.56.695l-4.781 2.457a.781.781 0 10.71 1.391l4.335-2.215a1.2 1.2 0 011.598.454c.148.263.184.568.1.858a1.155 1.155 0 01-.557.695l-11.607 6.048a.243.243 0 00-.014.008c-2.2 1.2-4.53 1.257-6.585.166zm9.133.268l5.33-2.777-1.348 2.201a6.556 6.556 0 01-3.982.576z" fill="#EC7451"/></svg>