<svg width="48" height="48" fill="none" xmlns="http://www.w3.org/2000/svg"><path d="M44.813 1.875H38.25a.938.938 0 000 1.875h6.563c.723 0 1.312.589 1.312 1.313v18.562c0 .724-.589 1.313-1.313 1.313H21.939V9.775a.938.938 0 00-1.875 0v1.538a6.018 6.018 0 00-3.799 5.592v8.032H3.188a1.314 1.314 0 01-1.313-1.313V5.062c0-.723.589-1.312 1.313-1.312h16.875v1.17a.938.938 0 001.875 0V3.75h7.875a.938.938 0 000-1.875H3.188A3.191 3.191 0 000 5.063v18.562a3.191 3.191 0 003.188 3.188h13.076v2.294l-4.166 2.405a5.013 5.013 0 00-2.723-1.835 5.02 5.02 0 00-3.834.504 5.018 5.018 0 00-2.354 3.068 5.019 5.019 0 00.505 3.834 5.018 5.018 0 003.067 2.354 5.023 5.023 0 003.834-.505l5.671-3.274v5.415a5.058 5.058 0 005.053 5.052 5.058 5.058 0 005.052-5.052 5.059 5.059 0 00-4.431-5.013v-3.678l9.646-5.57h13.229A3.191 3.191 0 0048 23.625V5.062a3.191 3.191 0 00-3.188-3.187zm-24.75 11.534v22.769a5.039 5.039 0 00-1.924.97V16.906a4.14 4.14 0 011.924-3.497zM7.245 37.626a3.156 3.156 0 01-1.93-1.48 3.157 3.157 0 01-.317-2.412c.22-.82.745-1.505 1.48-1.929a3.157 3.157 0 012.411-.317 3.16 3.16 0 011.93 1.48c.424.735.537 1.591.317 2.41a3.156 3.156 0 01-1.48 1.93 3.156 3.156 0 01-2.411.318zm5.813-2.282a5 5 0 00-.124-2.15l3.33-1.922v2.22l-3.206 1.852zm11.436 5.729a3.181 3.181 0 01-3.177 3.177 3.181 3.181 0 01-3.178-3.177 3.181 3.181 0 013.178-3.178 3.181 3.181 0 013.177 3.178zm-2.556-10.856v-2.22l2.05-1.184h3.847l-5.898 3.404z" fill="#EC7451"/><path d="M10.404 17.906H6.282a.938.938 0 000 1.875h4.122a.938.938 0 000-1.875zm0-4.5H6.285a.938.938 0 000 1.875h4.12a.938.938 0 000-1.875zm6.186-3.562a.938.938 0 00-.938-.938h-9.37a.938.938 0 000 1.875h9.37c.518 0 .938-.42.938-.937zm14.536 10.54a.937.937 0 001.253-.434l5.158-10.622a.937.937 0 10-1.686-.82l-5.159 10.623a.937.937 0 00.434 1.253zm4.788-2.409c0 1.654 1.346 3 3 3s3-1.346 3-3c0-1.655-1.346-3-3-3s-3 1.345-3 3zm3-1.125a1.126 1.126 0 11-1.125 1.125c0-.62.505-1.125 1.125-1.125zm-12.64-6.137c0 1.654 1.346 3 3 3 1.655 0 3-1.346 3-3s-1.345-3-3-3c-1.654 0-3 1.346-3 3zm4.125 0a1.126 1.126 0 01-2.25 0 1.126 1.126 0 012.25 0zm3.632-6.963c.247 0 .489-.1.663-.275a.944.944 0 00.275-.663.94.94 0 00-.275-.662.944.944 0 00-.663-.275c-.246 0-.488.1-.663.275a.945.945 0 00-.274.663c0 .246.1.488.274.662a.944.944 0 00.663.275z" fill="#EC7451"/></svg>