<svg width="48" height="48" fill="none" xmlns="http://www.w3.org/2000/svg"><path d="M16 0C9.373 0 4 5.373 4 12v8.8a5.606 5.606 0 005.6 5.6h.8v-1.6h-.8a4.005 4.005 0 01-4-4V12C5.6 6.256 10.256 1.6 16 1.6c5.744 0 10.4 4.656 10.4 10.4v8.8a4.005 4.005 0 01-4 4h-.8v1.6h.8a5.606 5.606 0 005.6-5.6V12c0-6.627-5.373-12-12-12zM6.593 37.703l.584-.92-1.35-.858-.586.921a7.974 7.974 0 00.33 9.027V48h1.6v-2.4a.8.8 0 00-.174-.5 6.374 6.374 0 01-.404-7.397zM44 0H33.6a4.005 4.005 0 00-4 4v8a4.005 4.005 0 004 4h1.6v3.2a.8.8 0 001.365.566L40.331 16H44a4.005 4.005 0 004-4V4a4.005 4.005 0 00-4-4zm2.4 12a2.4 2.4 0 01-2.4 2.4h-4a.8.8 0 00-.566.234L36.8 17.27V15.2a.8.8 0 00-.8-.8h-2.4a2.4 2.4 0 01-2.4-2.4V4a2.4 2.4 0 012.4-2.4H44A2.4 2.4 0 0146.4 4v8z" fill="#EC7451"/><path d="M39.2 4h-5.6v1.6h5.6V4zM44 4h-3.2v1.6H44V4zm0 3.2H33.6v1.6H44V7.2zm-4.8 3.2h-5.6V12h5.6v-1.6zM26.758 36.846l-.584-.921-1.352.857.585.922a6.372 6.372 0 01-.404 7.396.8.8 0 00-.175.5V48h1.6v-2.127a7.974 7.974 0 00.33-9.027z" fill="#EC7451"/><path d="M47.2 27.2H40a5.6 5.6 0 00-5.589 5.372L32 36.912V33.6a5.606 5.606 0 00-5.6-5.6h-2.924l-.022-.017-.014.017H21.6a1.6 1.6 0 01-1.6-1.6v-1.883a8 8 0 004-6.917v-6.4a8.016 8.016 0 00-.96-3.797.8.8 0 00-1.04-.344L8.46 13.43a.8.8 0 00-.46.724V17.6a8 8 0 004 6.917V26.4a1.6 1.6 0 01-1.6 1.6H5.6A5.606 5.606 0 000 33.6V48h1.6V33.6a4.005 4.005 0 014-4h2.546l7.204 10.065a.8.8 0 00.64.335H16a.8.8 0 00.64-.32l7.6-10.08h2.16a4.005 4.005 0 014 4V40a.8.8 0 001.5.388l3.77-6.788h4.587l-7.8 14.4h1.82l7.803-14.4h.32A5.606 5.606 0 0048 28a.8.8 0 00-.8-.8zM9.6 17.6v-2.938L21.953 8.85a6.4 6.4 0 01.447 2.35v6.4a6.4 6.4 0 01-12.8 0zm6.417 20.25l-2.469-3.45h5.069l-2.6 3.45zm3.81-5.05H12.4l-2.29-3.2h.29a3.2 3.2 0 003.2-3.2v-1.17a7.994 7.994 0 004.8 0v1.17a3.2 3.2 0 003.2 3.2h.64l-2.413 3.2zM42.4 32h-6.32A4.006 4.006 0 0140 28.8h6.32A4.006 4.006 0 0142.4 32z" fill="#EC7451"/></svg>