<svg width="38" height="38" fill="none" xmlns="http://www.w3.org/2000/svg"><path d="M8.867 25.017a3.804 3.804 0 00-3.8 3.8c0 2.095 1.704 3.8 3.8 3.8s3.8-1.705 3.8-3.8c0-2.096-1.704-3.8-3.8-3.8zm0 6.333a2.536 2.536 0 01-2.533-2.533 2.536 2.536 0 012.533-2.534 2.536 2.536 0 012.533 2.534 2.536 2.536 0 01-2.533 2.533zM30.4 25.017a3.804 3.804 0 00-3.8 3.8c0 2.095 1.704 3.8 3.8 3.8s3.8-1.705 3.8-3.8c0-2.096-1.704-3.8-3.8-3.8zm0 6.333a2.536 2.536 0 01-2.533-2.533 2.536 2.536 0 012.533-2.534 2.536 2.536 0 012.533 2.534A2.536 2.536 0 0130.4 31.35z" fill="#EC7451"/><path d="M37.9 21.507l-5.7-8.867a.634.634 0 00-.533-.29H24.7a.633.633 0 00-.633.633v15.833c0 .35.283.634.633.634h2.534v-1.267h-1.9V13.616h5.987l5.412 8.42v6.147h-3.166v1.267h3.8c.35 0 .633-.284.633-.634V21.85a.631.631 0 00-.1-.343z" fill="#EC7451"/><path d="M27.867 20.584V16.15h5.066v-1.267h-5.7a.633.633 0 00-.633.633v5.7c0 .35.283.633.633.633h9.5v-1.266h-8.866zM24.7 7.917H.633A.634.634 0 000 8.55v20.267c0 .35.284.633.633.633H5.7v-1.266H1.267v-19h22.8v19H12.033v1.266H24.7c.35 0 .633-.283.633-.633V8.55a.633.633 0 00-.633-.633z" fill="#EC7451"/><path d="M4.433 25.65h-3.8v1.267h3.8V25.65zm19.634 0H13.3v1.267h10.767V25.65zm13.3 0h-2.533v1.267h2.533V25.65zM24.7 10.45H2.533v1.267H24.7V10.45zM9.5 28.184H8.233v1.266H9.5v-1.266zm21.533 0h-1.266v1.266h1.266v-1.266zM11.4 5.384H2.533V6.65H11.4V5.384zm-10.133 0H0V6.65h1.267V5.384z" fill="#EC7451"/></svg>