<svg width="38" height="38" fill="none" xmlns="http://www.w3.org/2000/svg"><path d="M12.806 29.086a.767.767 0 00-.11-.267.712.712 0 00-.333-.273.73.73 0 00-.695.068.71.71 0 00-.274.333.716.716 0 00-.057.284.727.727 0 00.057.284.686.686 0 00.16.24.71.71 0 00.24.161.724.724 0 00.43.043.7.7 0 00.267-.111.71.71 0 00.273-.333.742.742 0 00.042-.429z" fill="#EC7451"/><path d="M34.14 29.315a.722.722 0 00-.009-.022c-.683-1.598-2.285-2.19-4.181-1.542l-5.17 1.43c-.3-.905-1.045-1.675-2.1-2.067a.657.657 0 00-.02-.007l-5.683-1.929c-.473-.611-1.955-2.176-4.73-2.176-1.938 0-3.654 1.33-4.635 2.78H.742a.742.742 0 00-.742.742v9.357c0 .41.332.743.742.743h4.413c.41 0 .742-.333.742-.743v-.64h2.07c.41 0 .742-.333.742-.743v-.213c1.206.105 1.603.334 2.71.973.853.491 2.14 1.234 4.46 2.276l.032.014c.445.175 1.316.45 2.388.45.747 0 1.592-.133 2.46-.526l11.428-4.092a.747.747 0 00.06-.025c1.092-.502 2.72-1.919 1.893-4.04zM4.413 35.139H1.484v-7.873h2.929v7.873zm2.811-1.383H5.897v-6.49h1.327v6.49zm24.43-1.762l-11.424 4.09a.855.855 0 00-.063.026c-1.591.731-3.104.293-3.696.063-2.24-1.008-3.436-1.698-4.31-2.201-1.214-.7-1.8-1.038-3.452-1.175V26.82c.703-1.153 2.068-2.334 3.539-2.334 2.522 0 3.59 1.64 3.633 1.707a.74.74 0 00.393.314l5.899 2.002c.942.354 1.44 1.16 1.211 1.965-.105.372-.35.68-.687.868a1.438 1.438 0 01-1.09.13l-6.65-2.107a.742.742 0 10-.448 1.415l6.662 2.11a2.94 2.94 0 00.827.12c.492 0 .98-.125 1.422-.372a2.911 2.911 0 001.437-1.938l5.573-1.544c.805-.275 1.861-.374 2.331.71.487 1.271-.778 1.97-1.107 2.128zM26.649 9.763a.725.725 0 00-.111-.267.712.712 0 00-.205-.205.756.756 0 00-.267-.11.734.734 0 00-.557.11.709.709 0 00-.205.205.75.75 0 00-.11.557.726.726 0 00.444.54.757.757 0 00.428.042.797.797 0 00.267-.11.71.71 0 00.273-.334.701.701 0 00.057-.283.734.734 0 00-.014-.145z" fill="#EC7451"/><path d="M37.257 2.516h-4.413a.742.742 0 00-.742.742v.64h-2.07a.742.742 0 00-.741.743v.213c-1.207-.105-1.603-.334-2.711-.973-.852-.49-2.14-1.233-4.46-2.276a.627.627 0 00-.032-.014c-.755-.297-2.733-.881-4.846.076l-2.987 1.07L11.738.219a.742.742 0 00-1.05 0L2.423 8.484a.736.736 0 000 1.05l14.123 14.123c.226.226.755.294 1.05 0l7.545-7.546c.196.017.4.026.611.026 1.94 0 3.654-1.33 4.636-2.78h6.87a.74.74 0 00.741-.742V3.258a.742.742 0 00-.742-.742zm-26.044-.722l1.692 1.691a3.204 3.204 0 01-1.692.478 3.203 3.203 0 01-1.692-.478l1.692-1.691zM5.689 10.7L3.998 9.009l1.691-1.692c.311.503.478 1.084.478 1.692 0 .607-.167 1.189-.478 1.692zm11.382 11.381L15.38 20.39a3.231 3.231 0 013.382 0l-1.691 1.691zm2.76-2.76a4.716 4.716 0 00-5.52 0L6.758 11.77a4.67 4.67 0 00.892-2.761 4.672 4.672 0 00-.892-2.761l1.693-1.693c.797.58 1.755.892 2.76.892a4.672 4.672 0 002.762-.892l1.605 1.605a2.93 2.93 0 00-1 .34 2.91 2.91 0 00-1.208 1.278 4.23 4.23 0 00-2.22 7.152 4.218 4.218 0 002.991 1.237 4.218 4.218 0 002.992-1.237 4.214 4.214 0 001.1-1.915l2.506.85a4.738 4.738 0 00.787 3.762l-1.695 1.695zm-4.512-7.297l.02.007 1.484.504A2.75 2.75 0 0112.2 13.88a2.75 2.75 0 01.895-4.481c.137 1.14.958 2.156 2.224 2.626zm7.277 4.532c-.287-.467-.449-1-.474-1.543.355.257.79.509 1.309.709l-.835.834zm6.695-4.238c-.704 1.153-2.068 2.334-3.539 2.334a5.38 5.38 0 01-.774-.055h-.003c-1.603-.233-2.465-1.144-2.75-1.505-.015-.022-.079-.106-.089-.12a.739.739 0 00-.409-.34l-5.9-2.003c-.942-.354-1.44-1.16-1.212-1.964v-.002l.001-.002c.106-.37.35-.677.686-.865a1.436 1.436 0 011.09-.13l6.65 2.107a.742.742 0 10.448-1.415l-5.288-1.676-.047-.046-.001-.002-2.738-2.737 2.353-.843a.73.73 0 00.026-.01l.008-.003a.676.676 0 00.03-.013c1.59-.731 3.103-.293 3.696-.063 2.24 1.008 3.436 1.697 4.31 2.201 1.214.7 1.799 1.038 3.452 1.175v5.977zm2.811-.446h-1.327v-6.49h1.327v6.49zm4.413 0h-2.928V4h2.928v7.873z" fill="#EC7451"/></svg>