<svg width="32" height="32" fill="none" xmlns="http://www.w3.org/2000/svg"><g clip-path="url(#clip0)" fill="#EC7451"><path d="M23.334 32c-4.779 0-8.667-3.888-8.667-8.666 0-4.779 3.888-8.667 8.667-8.667 4.778 0 8.666 3.888 8.666 8.667C32 28.112 28.112 32 23.334 32zm0-16C19.29 16 16 19.291 16 23.334c0 4.042 3.29 7.333 7.334 7.333s7.333-3.29 7.333-7.333S27.377 16 23.334 16z"/><path d="M22 26.667a.674.674 0 01-.472-.195l-2.667-2.666a.667.667 0 01.943-.943l2.162 2.163 4.198-4.798a.666.666 0 111.004.878L22.5 26.439a.671.671 0 01-.48.228H22zM12.667 28H3.333A3.337 3.337 0 010 24.667V7.333A3.337 3.337 0 013.333 4H6a.667.667 0 010 1.333H3.333c-1.102 0-2 .898-2 2v17.334c0 1.102.898 2 2 2h9.334a.667.667 0 010 1.333zM22 12a.667.667 0 01-.667-.667v-4c0-1.102-.897-2-2-2h-2.666a.667.667 0 010-1.333h2.666a3.337 3.337 0 013.334 3.333v4A.667.667 0 0122 12z"/><path d="M15.333 8h-8c-1.103 0-2-.897-2-2V3.333c0-.368.299-.666.667-.666h2.066A3.34 3.34 0 0111.333 0 3.34 3.34 0 0114.6 2.667h2.066c.368 0 .667.298.667.666V6c0 1.103-.897 2-2 2zM6.666 4v2c0 .367.299.667.667.667h8c.368 0 .667-.3.667-.667V4h-2a.667.667 0 01-.667-.667c0-1.102-.897-2-2-2s-2 .898-2 2A.667.667 0 018.666 4h-2zM18 12H4.667a.667.667 0 010-1.333H18A.667.667 0 0118 12zm-4 4H4.667a.667.667 0 010-1.333H14A.667.667 0 0114 16zm-2.667 4H4.667a.667.667 0 010-1.333h6.666a.667.667 0 010 1.333z"/></g><defs><clipPath id="clip0"><path fill="#fff" d="M0 0h32v32H0z"/></clipPath></defs></svg>