<svg width="32" height="32" fill="none" xmlns="http://www.w3.org/2000/svg"><path d="M27.564 13.228h-.079v-1.94C27.485 5.052 22.432 0 16.198 0 9.964 0 4.911 5.053 4.911 11.287v1.94h-.475c-1.743 0-3.09 1.545-3.09 3.328v4.95a3.129 3.129 0 003.09 3.208h2.93a.752.752 0 00.713-.832v-9.703c0-.475-.277-.95-.712-.95h-.872v-1.94c0-5.36 4.344-9.704 9.703-9.704a9.703 9.703 0 019.703 9.703v1.94h-.871c-.436 0-.713.476-.713.951v9.703a.753.753 0 00.713.832h.91l-.079.119a6.258 6.258 0 01-5.03 2.495 3.92 3.92 0 00-7.762.752A3.96 3.96 0 0017.03 32a4.079 4.079 0 002.852-1.227 3.48 3.48 0 00.95-1.9 7.841 7.841 0 006.298-3.13l.752-1.108c1.703-.12 2.773-1.189 2.773-2.733v-4.95c0-1.704-1.268-3.723-3.09-3.723zm-21.069 9.9h-2.06a1.545 1.545 0 01-1.504-1.623v-4.95c0-.912.634-1.743 1.505-1.743h2.06v8.317zm12.238 6.535a2.337 2.337 0 01-1.703.753 2.416 2.416 0 01-2.376-2.337 2.337 2.337 0 114.673-.002v.002a2.1 2.1 0 01-.594 1.584zm10.337-7.762c0 1.07-1.03 1.228-1.506 1.228h-1.663v-8.317h1.663c.872 0 1.506 1.228 1.506 2.139v4.95z" fill="#EC7451"/></svg>