<svg width="15" height="19" fill="none" xmlns="http://www.w3.org/2000/svg"><path fill-rule="evenodd" clip-rule="evenodd" d="M10.385 2.334h3.173c.795 0 1.442.63 1.442 1.406v1.97a.57.57 0 01-.577.562h-.315l-.499 10.206c-.044.901-.803 1.607-1.728 1.607H3.119c-.925 0-1.684-.706-1.728-1.607L.892 6.27H.577A.57.57 0 010 5.71V3.74c0-.775.647-1.406 1.442-1.406h3.173v-.563c0-.93.777-1.687 1.731-1.687h2.308c.954 0 1.73.757 1.73 1.687v.563zM6.346 1.209a.57.57 0 00-.577.562v.563h3.462v-.563a.57.57 0 00-.577-.562H6.346zM1.154 3.74c0-.155.13-.281.288-.281h12.116c.159 0 .288.126.288.281v1.406H1.154V3.74zM11.88 16.96a.57.57 0 00.576-.536l.496-10.152H2.047l.496 10.152a.57.57 0 00.576.536h8.762z" fill="#000"/><path d="M7.5 16.084c.276 0 .5-.239.5-.533V8.617c0-.294-.224-.533-.5-.533s-.5.239-.5.533v6.934c0 .294.224.533.5.533zm3 0c.276 0 .5-.239.5-.533V8.617c0-.294-.224-.533-.5-.533s-.5.239-.5.533v6.934c0 .294.224.533.5.533zm-6 0c.276 0 .5-.239.5-.533V8.617c0-.294-.224-.533-.5-.533s-.5.239-.5.533v6.934c0 .294.224.533.5.533z" fill="#000"/></svg>