<svg width="12" height="12" fill="none" xmlns="http://www.w3.org/2000/svg"><path d="M12 5.718L10.642 4.21l.212-2.02-1.986-.42L7.855.01 6 .839l-.25 4.879.25 4.88 1.855.828 1.013-1.76 1.986-.42-.212-2.02L12 5.718z" fill="#0ED678"/><path d="M4.145.01L3.132 1.77l-1.986.42.212 2.02L0 5.718l1.358 1.508-.212 2.02 1.986.42 1.013 1.76L6 10.597V.84L4.145.009z" fill="#04EB84"/><path d="M8.515 4.404l-.525-.468L6 6.166l-.25.553.25.503 2.515-2.818z" fill="#F7F0EB"/><path d="M3.909 5.188l-.498.497 2.093 2.093L6 7.222V6.165l-.525.588-1.566-1.566z" fill="#FFFBF5"/></svg>