<svg width="48" height="48" fill="none" xmlns="http://www.w3.org/2000/svg"><path d="M14.713 46.443a.75.75 0 00.817-.163l1.72-1.72 1.72 1.72a.749.749 0 001.06 0l1.72-1.72 1.72 1.72a.749.749 0 001.06 0l1.72-1.72 1.72 1.72a.749.749 0 001.06 0l1.72-1.72 1.72 1.72a.749.749 0 001.06 0l1.72-1.72 1.72 1.72a.749.749 0 001.06 0l1.72-1.72 1.72 1.72a.75.75 0 001.28-.53v-42A2.253 2.253 0 0040.5 1.5H12.75a3.003 3.003 0 00-3 3V6H6a.75.75 0 00-.75.75V39a3.003 3.003 0 003 3h6v3.75a.75.75 0 00.463.693zM41.25 3.75v40.19l-.97-.97a.749.749 0 00-1.06 0l-1.72 1.72-1.72-1.72a.749.749 0 00-1.06 0L33 44.69l-1.72-1.72a.749.749 0 00-1.06 0l-1.72 1.72-1.72-1.72a.749.749 0 00-1.06 0L24 44.69l-1.72-1.72a.749.749 0 00-1.06 0l-1.72 1.72-1.72-1.72a.749.749 0 00-1.06 0l-.97.97V4.5c0-.527-.139-1.044-.403-1.5H40.5a.75.75 0 01.75.75zM6.75 39V7.5h3V39a1.5 1.5 0 01-3 0zm4.097 1.5c.264-.456.404-.973.403-1.5V4.5a1.5 1.5 0 113 0v36h-3.403z" fill="#EC7451"/><path d="M28.5 14.25a.75.75 0 01-.75-.75.75.75 0 10-1.5 0 2.254 2.254 0 001.5 2.121v.129a.75.75 0 101.5 0v-.129a2.25 2.25 0 00-.75-4.371.75.75 0 11.75-.75.75.75 0 101.5 0 2.254 2.254 0 00-1.5-2.121V8.25a.75.75 0 10-1.5 0v.129a2.25 2.25 0 00.75 4.371.75.75 0 110 1.5z" fill="#EC7451"/><path d="M28.5 19.5A7.5 7.5 0 1021 12a7.509 7.509 0 007.5 7.5zm0-13.5a6 6 0 11-6 6 6.007 6.007 0 016-6zM30 21h-3a.75.75 0 100 1.5h3a.75.75 0 100-1.5zm-11.25 4.5h10.5a.75.75 0 100-1.5h-10.5a.75.75 0 100 1.5zm13.5 0h1.5a.75.75 0 100-1.5h-1.5a.75.75 0 100 1.5zm4.5 0h1.5a.75.75 0 100-1.5h-1.5a.75.75 0 100 1.5zm-18 3h10.5a.75.75 0 100-1.5h-10.5a.75.75 0 100 1.5zm13.5 0h1.5a.75.75 0 100-1.5h-1.5a.75.75 0 100 1.5zm6-1.5h-1.5a.75.75 0 100 1.5h1.5a.75.75 0 100-1.5zm-19.5 4.5h10.5a.75.75 0 100-1.5h-10.5a.75.75 0 100 1.5zm13.5 0h1.5a.75.75 0 100-1.5h-1.5a.75.75 0 100 1.5zm6-1.5h-1.5a.75.75 0 100 1.5h1.5a.75.75 0 100-1.5zm-19.5 4.5h10.5a.75.75 0 100-1.5h-10.5a.75.75 0 100 1.5zm13.5 0h1.5a.75.75 0 100-1.5h-1.5a.75.75 0 100 1.5zm6-1.5h-1.5a.75.75 0 100 1.5h1.5a.75.75 0 100-1.5zm-19.5 4.5h10.5a.75.75 0 100-1.5h-10.5a.75.75 0 100 1.5zm13.5 0h1.5a.75.75 0 100-1.5h-1.5a.75.75 0 100 1.5zm6-1.5h-1.5a.75.75 0 100 1.5h1.5a.75.75 0 100-1.5zm0 3h-6a.75.75 0 100 1.5h6a.75.75 0 100-1.5z" fill="#EC7451"/></svg>