<svg width="62" height="55" xmlns="http://www.w3.org/2000/svg"><path d="M25.5 48a3.5 3.5 0 110 7 3.5 3.5 0 010-7zm12 0a3.5 3.5 0 110 7 3.5 3.5 0 010-7zm-12 2a1.5 1.5 0 100 3 1.5 1.5 0 000-3zm12 0a1.5 1.5 0 100 3 1.5 1.5 0 000-3zM56 0a6 6 0 015.996 5.775L62 6v36a6 6 0 01-5.775 5.996L56 48h-8a1 1 0 01-.117-1.993L48 46h8a4 4 0 003.995-3.8L60 42V6a4 4 0 00-3.8-3.995L56 2H7a4.003 4.003 0 00-3.996 3.8l-.005.2-.002 7.242h50.785a1 1 0 01.117 1.994l-.117.007-50.786-.001-.005 26.799.004.16a3.999 3.999 0 003.796 3.794l.2.005h8.772a1 1 0 01.117 1.993l-.117.007H6.991a5.999 5.999 0 01-5.996-5.774l-.004-.229.008-35.998A6.003 6.003 0 016.775.004L7 0h49zM16.985 23.77a2 2 0 011.774 1.077l.068.145 6.836 16.172h13.498l4.635-10.543H24.303a1 1 0 01-.116-1.993l.116-.007h19.493a2 2 0 011.888 2.66l-.057.145-4.636 10.543a2 2 0 01-1.673 1.188l-.157.007-12.95-.001-.862 2.373h14.018a1 1 0 01.994.884l.006.117a1 1 0 01-.883.993l-.117.007H23.921a1 1 0 01-.973-1.233l.033-.109 1.303-3.582a1.996 1.996 0 01-.395-.526l-.068-.145-6.836-16.172h-4.48a1 1 0 01-.116-1.993l.116-.007h4.48zM8.5 5a2.5 2.5 0 110 5 2.5 2.5 0 010-5zm7 0a2.5 2.5 0 110 5 2.5 2.5 0 010-5zm7 0a2.5 2.5 0 110 5 2.5 2.5 0 010-5z" fill="#FFF"/></svg>