<svg width="59" height="70" xmlns="http://www.w3.org/2000/svg"><path d="M28.348.775a4 4 0 013.309.02l23.62 10.907a5 5 0 012.904 4.54l-.004 19.762c-1.538 17.095-10.884 28.241-27.893 33.284l-.281.083-.803-.236C12.637 64.141 3.17 53.065.924 36.045l-.009-.13V16.276a5 5 0 012.96-4.565zm2.47 1.837a2 2 0 00-1.654-.01L4.69 13.537a3 3 0 00-1.776 2.739v19.571l.063.457C5.241 52.24 14.13 62.5 29.768 67.217l.229.068.229-.068c15.736-4.828 24.327-15.072 25.906-30.794l.049-.509V16.242a3 3 0 00-1.742-2.724zm15.878 20.581c1.589 2.005 1.472 4.116-.292 5.977l-.176.18-17.88 17.93a4 4 0 01-5.484.171l-.16-.15-9.348-9.237c-2.388-2.528-2.713-5.03-.742-7.106 1.94-2.045 4.404-1.795 7.025.521l.212.193 4.264 4.298 1.41 1.357 7.25-7.092a1 1 0 011.32-.068l.093.084a1 1 0 01.07 1.32l-.085.094-8.635 8.449-2.827-2.719-4.248-4.284c-1.947-1.798-3.27-1.964-4.398-.776-1.11 1.17-.99 2.44.55 4.146l.17.185 9.325 9.213a2 2 0 002.696.106l.126-.117 17.886-17.937c1.221-1.204 1.305-2.24.31-3.496-.904-1.142-1.958-1.183-3.584.028l-.141.106-4.218 4.114a1 1 0 01-1.32.066l-.094-.084a1 1 0 01-.067-1.321l.085-.093 4.258-4.153.083-.072c2.525-1.973 4.871-1.973 6.566.167z" fill="#FFF"/></svg>