<svg width="60" height="61" xmlns="http://www.w3.org/2000/svg"><path d="M54 8a6 6 0 015.996 5.775L60 14v32a6 6 0 01-5.775 5.996L54 52H20.7l-6.577 8.607c-.556.728-1.694.382-1.788-.49L12.329 60v-9a1 1 0 011.993-.117l.007.117-.001 6.044 5.083-6.651a1 1 0 01.679-.386l.116-.007H54a4 4 0 003.995-3.8L58 46V14a4 4 0 00-3.8-3.995L54 10h-5a1 1 0 01-.117-1.993L49 8h5zM11 8a1 1 0 01.117 1.993L11 10H6a4 4 0 00-3.995 3.8L2 14v32a4 4 0 003.8 3.995L6 50h1.975a1 1 0 01.116 1.993L7.975 52H6a6 6 0 01-5.996-5.775L0 46V14a6 6 0 015.775-5.996L6 8h5zm19-8c9.28 0 16.825 7.437 16.997 16.677L47 17l-.001 1.923.152.012c3.083.286 4.76 2.325 4.846 5.798l.003.285c0 3.51-1.752 5.568-4.995 5.926-.094 9.189-4.555 14.032-13.138 14.16l-.078.002a3.001 3.001 0 11.075-2.002c7.41-.118 11.044-4.03 11.141-12.1l-.044-.002V17l-.003-.314C44.79 8.546 38.14 2 29.96 2h.019l-.298.003c-8.033.167-14.514 6.65-14.679 14.683L15 17v14.002L13.998 31c-3.908-.008-6.037-2.113-6.037-5.982 0-3.646 1.682-5.79 4.85-6.083l.15-.012V17l.003-.323C13.136 7.437 20.68 0 29.961 0H30zm1 42.5a1.5 1.5 0 100 3 1.5 1.5 0 000-3zM13 20.926l-.05.005c-2.056.205-2.989 1.456-2.989 4.087 0 2.354.895 3.585 2.902 3.9l.137.018v-8.01zm33.961 0v8.01l.137-.018c2.007-.315 2.902-1.546 2.902-3.9 0-2.63-.933-3.882-2.988-4.087l-.051-.005zM29.547 5c6.951 0 12.586 5.635 12.586 12.586a1 1 0 11-2 0C40.133 11.74 35.393 7 29.547 7a1 1 0 110-2z" fill="#FFF"/></svg>